<svg id="svg-source" height="0" version="1.1" 
  xmlns="http://www.w3.org/2000/svg" style="position:absolute; margin-left: -100%" 
  xmlns:xlink="http://www.w3.org/1999/xlink">
  <g id="clip" data-iconmelon="Dripicons:f120e39b4bc67e058663751b8b27f9f9">
    <path d="M30.557,11.821c-0.887-0.886-1.765,0-1.765,0L13.958,26.655c-2.315,2.315-4.788,3.271-6.953,2.689
	c-1.601-0.429-2.824-1.687-3.274-3.365c-0.615-2.294,0.292-4.868,2.488-7.064L21.78,3.354c1.466-1.466,3.394-0.876,4.563,0.295
	c0.626,0.626,1.006,1.383,1.067,2.134c0.067,0.817-0.246,1.581-0.934,2.269L10.783,23.744C9.864,24.663,9,24.794,8.655,24.447
	c-0.333-0.333-0.192-1.184,0.728-2.104L19.516,12.21c0.488-0.486,0.488-1.277,0-1.764c-0.487-0.488-1.277-0.488-1.764,0
	L7.618,20.579c-2.087,2.088-1.946,4.414-0.727,5.633c1.23,1.23,3.568,1.385,5.656-0.703L28.241,9.815
	c1.213-1.213,1.786-2.68,1.656-4.239c-0.11-1.339-0.746-2.649-1.789-3.692c-2.033-2.033-5.56-2.827-8.092-0.294L4.455,17.151
	c-2.843,2.843-3.985,6.296-3.134,9.474c0.683,2.55,2.567,4.469,5.038,5.13c0.614,0.165,1.243,0.246,1.882,0.246
	c2.505,0,5.147-1.246,7.482-3.582l14.834-14.833C30.557,13.586,31.452,12.717,30.557,11.821z"></path>
  </g>
  <g id="tablet" data-iconmelon="Dripicons:88b08d58bd3100cd9c3cfa9ccecf29c7">
    <g>
      <path d="M25.641,0H6.359C4.706,0,3.639,1.02,3.639,2.598v26.805C3.639,30.98,4.706,32,6.359,32h19.281
		c1.653,0,2.721-1.02,2.721-2.598V2.598C28.361,1.02,27.294,0,25.641,0z M26.283,29.402c0,0.29,0,0.52-0.643,0.52H6.359
		c-0.643,0-0.643-0.229-0.643-0.52V2.598c0-0.29,0-0.52,0.643-0.52h19.281c0.643,0,0.643,0.229,0.643,0.52V29.402z"></path>
      <path d="M24.254,3.749H7.745c-0.382,0-0.692,0.31-0.692,0.692v20.921c0,0.382,0.311,0.692,0.692,0.692h16.509
		c0.383,0,0.693-0.311,0.693-0.692V4.441C24.947,4.059,24.637,3.749,24.254,3.749z M23.562,24.67H8.438V5.134h15.123V24.67z"></path>
      <path d="M15.142,27.17c-0.225,0.225-0.354,0.537-0.354,0.859c0,0.318,0.129,0.63,0.354,0.855c0.226,0.225,0.537,0.356,0.859,0.356
		c0.318,0,0.63-0.132,0.855-0.356c0.225-0.226,0.356-0.537,0.356-0.855c0-0.319-0.132-0.635-0.356-0.859
		C16.406,26.72,15.592,26.72,15.142,27.17z"></path>
    </g>
  </g>
  <g id="pc" data-iconmelon="Dripicons:bc56f48e43b348a1c2d7aad214fc8e90">
    <g>
      <path d="M28.994,2.505H3.007C1.124,2.505,0,3.634,0,5.524v14.286c0,1.892,1.124,3.021,3.007,3.021h8.6v2.61L8.58,27.943
		c-0.285,0.235-0.391,0.624-0.266,0.972c0.125,0.349,0.454,0.58,0.824,0.58H22.77c0.369,0,0.699-0.231,0.824-0.58
		c0.125-0.348,0.019-0.736-0.267-0.972l-3.077-2.544v-2.568h8.744c1.883,0,3.006-1.129,3.006-3.021V5.524
		C32,3.634,30.877,2.505,28.994,2.505z M19.018,26.655l1.316,1.087h-8.76l1.467-1.213c0.202-0.166,0.318-0.414,0.318-0.675v-3.023
		h5.139v3.023C18.498,26.211,18.711,26.519,19.018,26.655z M30.248,19.811c0,0.937-0.328,1.268-1.254,1.268H3.007
		c-0.926,0-1.254-0.331-1.254-1.268V5.524c0-0.936,0.328-1.267,1.254-1.267h25.987c0.926,0,1.254,0.331,1.254,1.267V19.811z"></path>
      <path d="M28.351,5.667H3.508c-0.323,0-0.585,0.262-0.585,0.584v12.817c0,0.322,0.262,0.584,0.585,0.584h24.843
		c0.322,0,0.584-0.262,0.584-0.584V6.251C28.935,5.929,28.673,5.667,28.351,5.667z M27.766,18.484H4.092V6.835h23.674V18.484z"></path>
    </g>
  </g>
  <g id="unlock" data-iconmelon="Dripicons:80b108c3df0a300fd573f0b90696d18d">
    <g>
      <path d="M25.806,11.393H9.841c-0.005-1.953,0.352-5.07,1.998-6.909C12.84,3.363,14.202,2.819,16,2.819
		c2.657,0,4.416,1.222,5.378,3.736c0.279,0.727,1.093,1.092,1.821,0.812c0.727-0.277,1.091-1.093,0.812-1.82
		C22.623,1.919,19.853,0,16,0c-2.61,0-4.717,0.876-6.263,2.603c-2.365,2.643-2.717,6.61-2.711,8.79H6.194
		c-0.778,0-1.41,0.632-1.41,1.41v17.788c0,0.778,0.631,1.409,1.41,1.409h19.612c0.779,0,1.41-0.631,1.41-1.409V12.803
		C27.216,12.024,26.585,11.393,25.806,11.393z M24.396,29.181H7.604V14.212h16.793V29.181z"></path>
      <path d="M13.51,26.226h5.041c0.232,0,0.449-0.114,0.581-0.305c0.131-0.191,0.161-0.434,0.079-0.65l-1.368-3.602
		c0.259-0.398,0.621-1.086,0.621-1.818c0-1.315-0.852-2.713-2.432-2.713c-1.58,0-2.433,1.397-2.433,2.713
		c0,0.734,0.373,1.423,0.642,1.824l-1.388,3.592c-0.084,0.217-0.056,0.461,0.076,0.652C13.061,26.11,13.278,26.226,13.51,26.226z
		 M15.576,21.111c-0.147-0.175-0.568-0.782-0.568-1.261c0-0.013,0.028-1.303,1.023-1.303c0.994,0,1.022,1.29,1.022,1.303
		c0,0.484-0.407,1.095-0.548,1.269c-0.16,0.195-0.204,0.462-0.115,0.698l1.139,2.998h-2.991l1.157-2.994
		C15.788,21.581,15.742,21.308,15.576,21.111z"></path>
    </g>
  </g>
  <g id="smartphone" data-iconmelon="Dripicons:6b576a4916e397c890d88cc3d2ee6884">
    <g>
      <path d="M22.492,0H9.508C7.792,0,6.684,1.076,6.684,2.741v26.518C6.684,30.925,7.792,32,9.508,32h12.984
		c1.716,0,2.824-1.075,2.824-2.741V2.741C25.316,1.076,24.208,0,22.492,0z M23.239,29.259c0,0.459-0.108,0.663-0.747,0.663H9.508
		c-0.693,0-0.747-0.274-0.747-0.663V2.741c0-0.388,0.054-0.663,0.747-0.663h12.984c0.639,0,0.747,0.204,0.747,0.663V29.259z"></path>
      <path d="M21.504,3.749H10.496c-0.383,0-0.692,0.311-0.692,0.692v19.691c0,0.383,0.31,0.692,0.692,0.692h11.008
		c0.383,0,0.692-0.31,0.692-0.692V4.441C22.196,4.06,21.887,3.749,21.504,3.749z M20.812,23.44h-9.623V5.134h9.623V23.44z"></path>
      <path d="M16,25.749c-0.412,0-0.813,0.167-1.102,0.457c-0.29,0.288-0.456,0.689-0.456,1.102c0,0.408,0.166,0.811,0.456,1.102
		c0.291,0.291,0.693,0.457,1.102,0.457c0.409,0,0.811-0.166,1.102-0.457s0.457-0.693,0.457-1.102c0-0.412-0.166-0.813-0.457-1.102
		C16.811,25.916,16.412,25.749,16,25.749z"></path>
    </g>
  </g>
  <g id="gear" data-iconmelon="Dripicons:2ec8ef41f49cd62520bcfa8d499782ab">
    <g>
      <path d="M31.67,12.602c-0.122-0.475-0.521-0.826-1.006-0.89l-2.623-0.343c-0.057-0.153-0.097-0.256-0.102-0.268l-0.045-0.107
		c0,0-0.041-0.092-0.105-0.233l1.612-2.098c0.298-0.388,0.331-0.919,0.081-1.34c-0.027-0.047-0.69-1.158-2.169-2.638
		c-1.479-1.479-2.59-2.141-2.636-2.169C24.256,2.268,23.725,2.3,23.337,2.6L21.24,4.211c-0.142-0.064-0.233-0.105-0.233-0.105
		c-0.013-0.005-0.024-0.011-0.038-0.016l-0.098-0.04c0,0-0.094-0.036-0.24-0.09l-0.343-2.624c-0.063-0.485-0.416-0.883-0.89-1.006
		C19.346,0.316,18.091,0,16,0s-3.346,0.316-3.398,0.33c-0.474,0.123-0.826,0.521-0.89,1.006L11.369,3.96
		c-0.151,0.056-0.252,0.095-0.262,0.099l-0.08,0.033c-0.012,0.004-0.021,0.009-0.033,0.014c0,0-0.092,0.041-0.233,0.105L8.663,2.599
		C8.275,2.3,7.744,2.269,7.323,2.517c-0.047,0.028-1.157,0.69-2.638,2.17c-1.478,1.479-2.141,2.59-2.168,2.637
		c-0.25,0.421-0.217,0.952,0.081,1.341l1.612,2.097c-0.064,0.141-0.105,0.233-0.105,0.233l0.006,0.002
		c-0.022,0.042-0.043,0.086-0.061,0.131c0,0-0.036,0.096-0.092,0.242l-2.623,0.343c-0.485,0.063-0.883,0.415-1.006,0.89
		C0.317,12.654,0,13.909,0,16c0,2.092,0.317,3.346,0.33,3.398c0.123,0.474,0.521,0.826,1.006,0.89l2.623,0.343
		c0.057,0.151,0.096,0.253,0.1,0.262l0.033,0.08c0.004,0.012,0.009,0.022,0.014,0.033c0,0,0.041,0.093,0.105,0.233l-1.612,2.098
		c-0.298,0.388-0.331,0.919-0.081,1.341c0.027,0.046,0.69,1.157,2.168,2.636c1.479,1.479,2.592,2.142,2.638,2.169
		c0.421,0.249,0.952,0.217,1.34-0.082l2.098-1.611c0.142,0.064,0.233,0.105,0.233,0.105c0.012,0.004,0.021,0.009,0.033,0.014
		l0.101,0.041c0,0,0.095,0.037,0.241,0.091l0.343,2.624c0.063,0.485,0.416,0.883,0.891,1.006C12.654,31.684,13.909,32,16,32
		s3.346-0.316,3.398-0.33c0.474-0.123,0.826-0.521,0.89-1.006l0.343-2.624c0.152-0.056,0.254-0.096,0.266-0.101l0.109-0.045
		c0,0,0.093-0.041,0.234-0.105l2.097,1.611c0.389,0.299,0.92,0.331,1.341,0.082c0.047-0.027,1.157-0.69,2.637-2.169
		c1.478-1.479,2.141-2.59,2.168-2.636c0.25-0.422,0.217-0.953-0.081-1.341l-1.612-2.098c0.064-0.142,0.105-0.234,0.105-0.234
		c0.005-0.011,0.01-0.021,0.014-0.032l0.041-0.101c0,0,0.037-0.095,0.092-0.241l2.623-0.343c0.485-0.063,0.884-0.416,1.006-0.89
		C31.684,19.346,32,18.092,32,16C32,13.909,31.684,12.654,31.67,12.602z M29.479,18.024l-2.476,0.323
		c-0.453,0.06-0.833,0.37-0.979,0.803c-0.142,0.416-0.304,0.836-0.304,0.836l-0.025,0.062c-0.035,0.08-0.203,0.453-0.379,0.81
		c-0.202,0.41-0.154,0.899,0.125,1.262l1.521,1.979c-0.295,0.383-0.737,0.91-1.345,1.518c-0.608,0.607-1.136,1.051-1.519,1.345
		l-1.979-1.521c-0.363-0.278-0.852-0.326-1.262-0.125c-0.391,0.193-0.799,0.375-0.799,0.375s0.001,0,0.002-0.001l-0.055,0.022
		c0,0-0.432,0.167-0.857,0.312c-0.433,0.146-0.743,0.526-0.803,0.979l-0.323,2.475c-0.479,0.062-1.165,0.123-2.023,0.123
		c-0.86,0-1.547-0.061-2.025-0.123l-0.323-2.475c-0.06-0.453-0.371-0.833-0.803-0.979c-0.416-0.143-0.835-0.304-0.835-0.304
		l-0.063-0.025c-0.08-0.036-0.452-0.203-0.81-0.379c-0.408-0.202-0.898-0.154-1.262,0.124L7.9,26.963
		c-0.383-0.295-0.911-0.737-1.519-1.345c-0.607-0.608-1.05-1.137-1.345-1.519L6.56,22.12c0.278-0.362,0.327-0.852,0.125-1.262
		c-0.179-0.36-0.347-0.735-0.381-0.812l-0.017-0.04C6.284,20,6.12,19.574,5.977,19.151c-0.146-0.433-0.526-0.744-0.979-0.804
		l-2.477-0.323c-0.062-0.479-0.122-1.165-0.122-2.023c0-0.86,0.061-1.547,0.123-2.025l2.476-0.323
		c0.453-0.061,0.833-0.372,0.979-0.805C6.12,12.427,6.285,12,6.287,11.993c0.004-0.009,0.007-0.018,0.011-0.026l0,0
		c0,0,0.188-0.422,0.387-0.825c0.202-0.41,0.153-0.899-0.125-1.262L5.037,7.9c0.295-0.383,0.737-0.91,1.345-1.519
		C6.99,5.774,7.518,5.332,7.9,5.037L9.88,6.56c0.362,0.277,0.852,0.325,1.262,0.124c0.36-0.178,0.736-0.347,0.812-0.38l0.039-0.016
		c0.007-0.003,0.435-0.168,0.857-0.312c0.433-0.146,0.743-0.526,0.803-0.979l0.323-2.476C14.454,2.459,15.141,2.398,16,2.398
		s1.546,0.061,2.024,0.123l0.323,2.476c0.06,0.452,0.371,0.832,0.803,0.979c0.418,0.143,0.84,0.306,0.84,0.306l0,0l0.061,0.023
		c0.084,0.038,0.453,0.205,0.81,0.38c0.409,0.201,0.898,0.153,1.26-0.126l1.98-1.521c0.382,0.295,0.91,0.737,1.518,1.344
		c0.607,0.609,1.05,1.138,1.345,1.52L25.441,9.88c-0.279,0.362-0.327,0.851-0.125,1.261c0.192,0.391,0.374,0.8,0.374,0.8v-0.001
		l0.022,0.053c0.002,0.006,0.167,0.435,0.312,0.857c0.147,0.432,0.526,0.742,0.979,0.803l2.476,0.323
		c0.062,0.479,0.122,1.165,0.122,2.024S29.541,17.546,29.479,18.024z"></path>
      <path d="M16,8.36c-4.213,0-7.64,3.427-7.64,7.64s3.427,7.64,7.64,7.64s7.64-3.427,7.64-7.64S20.213,8.36,16,8.36z M16,21.241
		c-2.89,0-5.241-2.351-5.241-5.241S13.11,10.759,16,10.759c2.891,0,5.241,2.351,5.241,5.241S18.891,21.241,16,21.241z"></path>
    </g>
  </g>
  <g id="lock" data-iconmelon="Dripicons:8982bca438b24361aa9d1d6f7d59f4e4">
    <g>
      <path d="M25.806,11.393h-0.831c0.005-2.18-0.347-6.147-2.712-8.79C20.717,0.876,18.61,0,16,0s-4.717,0.876-6.263,2.603
		c-2.365,2.643-2.717,6.61-2.712,8.79H6.194c-0.778,0-1.41,0.632-1.41,1.41v17.788c0,0.778,0.631,1.409,1.41,1.409h19.611
		c0.778,0,1.41-0.631,1.41-1.409V12.803C27.215,12.024,26.584,11.393,25.806,11.393z M11.844,4.478
		C12.845,3.362,14.205,2.819,16,2.819s3.155,0.543,4.156,1.658c1.749,1.948,2.003,5.154,1.997,6.915H9.847
		C9.841,9.632,10.095,6.426,11.844,4.478z M24.396,29.181H7.604V14.212h16.792V29.181z"></path>
      <path d="M17.842,21.669c0.259-0.398,0.621-1.086,0.621-1.818c0-1.315-0.852-2.713-2.432-2.713c-1.58,0-2.432,1.397-2.432,2.713
		c0,0.734,0.374,1.424,0.643,1.824l-1.388,3.592c-0.084,0.217-0.056,0.461,0.076,0.652s0.349,0.307,0.582,0.307h5.041
		c0.231,0,0.449-0.114,0.581-0.305c0.131-0.191,0.161-0.434,0.079-0.65L17.842,21.669z M14.539,24.815l1.157-2.994
		c0.093-0.24,0.046-0.514-0.119-0.71c-0.147-0.175-0.568-0.782-0.568-1.261c0-0.013,0.028-1.303,1.022-1.303s1.022,1.29,1.022,1.303
		c0,0.484-0.407,1.095-0.548,1.269c-0.16,0.195-0.204,0.462-0.115,0.698l1.139,2.998H14.539z"></path>
    </g>
  </g>
  <g id="lifebuoy" data-iconmelon="Dripicons:a43af61c0d2d6d56aa24c7d9b59f38af">
    <path d="M16.001,0c-8.823,0-16,7.178-16,16s7.177,16,16,16C24.823,32,32,24.822,32,16S24.823,0,16.001,0z M16.001,22.696
	c-3.693,0-6.697-3.003-6.697-6.696s3.004-6.697,6.697-6.697c3.692,0,6.696,3.004,6.696,6.697S19.693,22.696,16.001,22.696z M2.82,16
	c0-1.817,0.369-3.55,1.037-5.127l3.739,1.479c-0.488,1.119-0.76,2.353-0.76,3.648c0,1.19,0.23,2.327,0.646,3.371l-3.726,1.5
	C3.155,19.362,2.82,17.72,2.82,16z M24.519,12.628l3.726-1.499c0.603,1.508,0.937,3.151,0.937,4.871c0,1.817-0.369,3.55-1.037,5.127
	l-3.739-1.479c0.488-1.119,0.76-2.353,0.76-3.648C25.164,14.81,24.934,13.672,24.519,12.628z M27.48,9.537l-3.771,1.518
	c-0.657-1.021-1.51-1.904-2.508-2.594l1.504-3.803C24.691,5.838,26.343,7.523,27.48,9.537z M21.127,3.857l-1.479,3.738
	c-1.118-0.487-2.352-0.76-3.647-0.76c-1.19,0-2.328,0.23-3.373,0.646L11.13,3.756c1.508-0.602,3.15-0.937,4.871-0.937
	C17.817,2.819,19.551,3.189,21.127,3.857z M9.538,4.52l1.517,3.771c-1.021,0.658-1.903,1.511-2.593,2.508L4.659,9.295
	C5.838,7.309,7.524,5.657,9.538,4.52z M4.52,22.463l3.772-1.518c0.657,1.021,1.511,1.903,2.508,2.594l-1.504,3.803
	C7.309,26.162,5.658,24.477,4.52,22.463z M10.874,28.143l1.479-3.738c1.118,0.487,2.352,0.76,3.648,0.76
	c1.19,0,2.327-0.23,3.371-0.646l1.499,3.727c-1.508,0.602-3.15,0.937-4.87,0.937C14.184,29.181,12.451,28.811,10.874,28.143z
	 M22.463,27.48l-1.517-3.771c1.021-0.658,1.903-1.511,2.593-2.508l3.803,1.503C26.162,24.691,24.477,26.343,22.463,27.48z"></path>
  </g>
  <g id="tag" data-iconmelon="Dripicons:c0452535b3b26dfca843ae8354de973f">
    <g>
      <path d="M30.49,6.898H10.148c-0.367,0-0.722,0.133-0.997,0.375l-8.639,7.592C0.187,15.153,0,15.566,0,16
		c0,0.435,0.187,0.848,0.513,1.134l8.639,7.592c0.275,0.242,0.63,0.375,0.997,0.375H30.49c0.834,0,1.51-0.676,1.51-1.509V8.408
		C32,7.574,31.324,6.898,30.49,6.898z M28.98,22.083H10.717L3.795,16l6.922-6.083H28.98V22.083z"></path>
      <path d="M8.559,16.001c0,0.573,0.235,1.134,0.641,1.54c0.406,0.406,0.967,0.641,1.54,0.641c0.577,0,1.137-0.235,1.543-0.641
		c0.405-0.406,0.638-0.966,0.638-1.54c0-0.574-0.232-1.137-0.638-1.543c-0.402-0.406-0.966-0.638-1.543-0.638
		c-0.573,0-1.134,0.231-1.54,0.638C8.794,14.864,8.559,15.427,8.559,16.001z"></path>
    </g>
  </g>
  <g id="calendar" data-iconmelon="Dripicons:75f28bbf4a5690a9ba36f0c13c816b4c">
    <g>
      <path d="M9.28,9.594c0.973,0,1.762-0.789,1.762-1.763V3.414c0-0.973-0.789-1.762-1.762-1.762c-0.974,0-1.762,0.789-1.762,1.762
		v4.417C7.518,8.805,8.306,9.594,9.28,9.594z"></path>
      <path d="M22.739,9.594c0.974,0,1.763-0.789,1.763-1.763V3.414c0-0.973-0.789-1.762-1.763-1.762c-0.973,0-1.762,0.789-1.762,1.762
		v4.417C20.978,8.805,21.767,9.594,22.739,9.594z"></path>
      <path d="M30.59,4.202h-3.247c-0.778,0-1.41,0.631-1.41,1.409s0.632,1.41,1.41,1.41h1.838v5.725H2.819V7.021h1.838
		c0.778,0,1.41-0.632,1.41-1.41s-0.631-1.409-1.41-1.409H1.41C0.631,4.202,0,4.833,0,5.611v23.327c0,0.778,0.631,1.409,1.41,1.409
		h29.18c0.779,0,1.41-0.631,1.41-1.409V5.611C32,4.833,31.369,4.202,30.59,4.202z M2.819,27.528V14.86h26.361v12.668H2.819z"></path>
      <path d="M13.808,7.021h4.385c0.779,0,1.41-0.632,1.41-1.41s-0.631-1.409-1.41-1.409h-4.385c-0.779,0-1.41,0.631-1.41,1.409
		S13.029,7.021,13.808,7.021z"></path>
    </g>
  </g>
  <g id="rss" data-iconmelon="Dripicons:b2a012a0a6aca67c99fdb84d864e60aa">
    <g>
      <path d="M16.836,14.355C10.942,8.857,2.418,9.743,2.059,9.784c-1.217,0.137-2.092,1.233-1.955,2.45
		c0.137,1.216,1.229,2.093,2.45,1.955c0.066-0.008,6.84-0.716,11.259,3.407c2.788,2.6,4.084,6.669,3.854,12.093
		c-0.053,1.224,0.896,2.257,2.12,2.309C19.819,31.999,19.851,32,19.883,32c1.18,0,2.161-0.932,2.212-2.122
		C22.383,23.102,20.613,17.879,16.836,14.355z"></path>
      <path d="M5.531,21.462c-1.378,0-2.728,0.556-3.703,1.531c-0.976,0.975-1.535,2.324-1.535,3.707c0,1.378,0.56,2.728,1.535,3.703
		c0.976,0.975,2.325,1.535,3.703,1.535c1.382,0,2.732-0.561,3.703-1.535c0.976-0.976,1.535-2.325,1.535-3.703
		c0-1.383-0.56-2.732-1.535-3.707C8.264,22.018,6.913,21.462,5.531,21.462z"></path>
      <path d="M24.074,6.749C15.308-1.36,2.578,0.071,2.04,0.137C0.825,0.284-0.041,1.388,0.106,2.604
		c0.146,1.214,1.246,2.082,2.466,1.934c0.11-0.013,11.215-1.267,18.492,5.466c4.602,4.258,6.745,10.881,6.371,19.687
		c-0.052,1.224,0.897,2.257,2.12,2.309C29.588,31.999,29.62,32,29.651,32c1.182,0,2.162-0.932,2.213-2.122
		C32.296,19.713,29.675,11.932,24.074,6.749z"></path>
    </g>
  </g>
  <g id="upload" data-iconmelon="Dripicons:8bb976ee07e40ed714103f245f02085f">
    <g>
      <path d="M29.779,18.742c-0.991,0-1.794,0.803-1.794,1.794v7.877H4.016v-7.877c0-0.991-0.803-1.794-1.794-1.794
		s-1.794,0.803-1.794,1.794v9.67C0.428,31.197,1.23,32,2.222,32h27.558c0.99,0,1.794-0.803,1.794-1.794v-9.67
		C31.573,19.545,30.77,18.742,29.779,18.742z"></path>
      <path d="M10.036,10.295l4.171-4.171v15.396c0,0.991,0.803,1.794,1.794,1.794c0.99,0,1.793-0.803,1.793-1.794V6.124l4.171,4.171
		c0.35,0.351,0.809,0.525,1.268,0.525s0.919-0.175,1.269-0.525c0.7-0.7,0.7-1.837,0-2.536l-7.232-7.233
		C16.933,0.189,16.477,0,16.001,0s-0.933,0.189-1.269,0.525L7.5,7.759c-0.701,0.699-0.701,1.836,0,2.536
		C8.199,10.995,9.336,10.995,10.036,10.295z"></path>
    </g>
  </g>
  <g id="folder" data-iconmelon="Dripicons:dd4ad3803615f3b20362f9a1f8e5c24d">
    <path d="M30.509,29.563H1.491C0.667,29.563,0,28.896,0,28.073V3.927c0-0.823,0.667-1.49,1.491-1.49h10.965
	c0.524,0,1.009,0.274,1.278,0.724l1.926,3.213h14.85C31.333,6.373,32,7.04,32,7.863v20.21C32,28.896,31.333,29.563,30.509,29.563z
	 M2.981,26.583h26.038V9.354H14.815c-0.523,0-1.009-0.275-1.278-0.725l-1.926-3.213h-8.63V26.583z"></path>
  </g>
  <g id="open-folder-" data-iconmelon="Dripicons:cec0f93a42b836fe75af1e98a82aab63">
    <path d="M31.736,13.143c-0.234-0.298-0.591-0.471-0.969-0.471h-1.699v-3.4c0-0.682-0.552-1.233-1.232-1.233H15.555l-1.592-2.656
	c-0.223-0.372-0.625-0.6-1.057-0.6H3.837c-0.681,0-1.233,0.552-1.233,1.233v6.656H1.233c-0.373,0-0.725,0.168-0.959,0.458
	c-0.234,0.29-0.324,0.67-0.246,1.034l2.604,12.08c0.123,0.567,0.625,0.974,1.205,0.974h23.999c0.569,0,1.064-0.39,1.198-0.942
	l2.932-12.08C32.055,13.827,31.97,13.439,31.736,13.143z M5.07,7.248h7.138L13.8,9.904c0.223,0.372,0.625,0.6,1.057,0.6h11.746
	v2.168H5.07V7.248z M26.867,24.752H4.833l-2.073-9.615H29.2L26.867,24.752z"></path>
  </g>
  <g id="window" data-iconmelon="Dripicons:c46396128d114aa48a60e600be0df7b9">
    <path d="M30.59,2.927H1.41C0.631,2.927,0,3.558,0,4.337v23.326c0,0.779,0.631,1.41,1.41,1.41h29.18c0.779,0,1.41-0.631,1.41-1.41
	V4.337C32,3.558,31.369,2.927,30.59,2.927z M29.181,9.034H19.004V5.746h10.177V9.034z M7.861,9.034V5.746h3.81v3.288H7.861z
	 M13.433,5.746h3.81v3.288h-3.81V5.746z M6.1,5.746v3.288h-3.28V5.746H6.1z M2.819,26.254V11.149h26.361v15.104H2.819z"></path>
  </g>
  <g id="users" data-iconmelon="Dripicons:2b284359e7934c3a68a30261eac0011c">
    <g>
      <path d="M12.408,19.143c4.054,0,7.351-3.297,7.351-7.351c0-4.053-3.297-7.351-7.351-7.351c-4.053,0-7.351,3.298-7.351,7.351
		C5.057,15.846,8.354,19.143,12.408,19.143z M12.408,6.986c2.65,0,4.807,2.155,4.807,4.806s-2.156,4.807-4.807,4.807
		s-4.807-2.156-4.807-4.807S9.757,6.986,12.408,6.986z"></path>
      <path d="M15.775,19.416c-0.417-0.133-0.873-0.041-1.207,0.241l-2.161,1.829l-2.161-1.829c-0.334-0.282-0.791-0.374-1.207-0.241
		C6.92,20.089,0,22.574,0,26.286c0,0.703,0.57,1.272,1.272,1.272h22.271c0.703,0,1.272-0.569,1.272-1.272
		C24.816,22.574,17.896,20.089,15.775,19.416z M3.422,25.014c1.21-1.022,3.494-2.17,5.728-2.951l2.436,2.062
		c0.475,0.401,1.169,0.401,1.644,0l2.437-2.062c2.233,0.781,4.518,1.929,5.727,2.951H3.422z"></path>
      <path d="M27.704,19.333c-0.471-0.233-1.043-0.041-1.278,0.431s-0.042,1.045,0.43,1.279c0.778,0.388,2.167,1.283,2.844,2.191h-3.392
		c-0.527,0-0.954,0.428-0.954,0.955c0,0.526,0.427,0.954,0.954,0.954h4.738c0.527,0,0.954-0.428,0.954-0.954
		C32,21.538,28.144,19.551,27.704,19.333z"></path>
      <path d="M22.975,17.705c-0.781,0-1.515-0.304-2.067-0.855c-0.373-0.373-0.977-0.373-1.35-0.001c-0.373,0.373-0.373,0.978,0,1.351
		c0.913,0.912,2.126,1.415,3.417,1.415c2.665,0,4.832-2.168,4.832-4.833c0-2.664-2.167-4.832-4.832-4.832
		c-0.651,0-1.284,0.128-1.881,0.381c-0.485,0.205-0.713,0.765-0.508,1.25s0.766,0.713,1.25,0.508c0.36-0.152,0.744-0.23,1.138-0.23
		c1.612,0,2.923,1.312,2.923,2.924C25.898,16.394,24.586,17.705,22.975,17.705z"></path>
    </g>
  </g>
  <g id="eye" data-iconmelon="Dripicons:27f5c7296c7b55f9d9eef5a0f637e415">
    <g>
      <path d="M31.785,15.296C31.549,14.945,25.886,6.705,16,6.705s-15.549,8.24-15.785,8.591c-0.286,0.426-0.286,0.982,0,1.407
		C0.451,17.054,6.114,25.295,16,25.295s15.549-8.241,15.785-8.592C32.071,16.278,32.071,15.722,31.785,15.296z M16,22.775
		c-6.943,0-11.631-4.917-13.156-6.777C4.364,14.134,9.03,9.225,16,9.225c6.943,0,11.631,4.917,13.156,6.777
		C27.636,17.866,22.97,22.775,16,22.775z"></path>
      <path d="M15.996,10.112c-1.283,0-2.506,0.409-3.535,1.182c-2.594,1.951-3.117,5.65-1.166,8.244c1.123,1.493,2.84,2.349,4.709,2.349
		c1.284,0,2.506-0.408,3.534-1.182c1.257-0.945,2.07-2.323,2.291-3.88c0.22-1.558-0.179-3.107-1.124-4.364
		C19.583,10.968,17.866,10.112,15.996,10.112z M19.958,16.56c-0.149,1.058-0.702,1.993-1.556,2.635
		c-0.698,0.525-1.527,0.803-2.398,0.803c-1.271,0-2.437-0.581-3.199-1.595c-1.324-1.762-0.969-4.272,0.792-5.597
		c0.698-0.525,1.528-0.803,2.399-0.803c1.271,0,2.437,0.581,3.198,1.594C19.836,14.45,20.107,15.503,19.958,16.56z"></path>
      <path d="M17.343,13.4c-0.33,0-0.655,0.135-0.891,0.368c-0.233,0.236-0.369,0.561-0.369,0.892s0.136,0.658,0.369,0.892
		c0.232,0.232,0.561,0.368,0.891,0.368c0.331,0,0.655-0.136,0.892-0.368c0.233-0.233,0.369-0.561,0.369-0.892
		s-0.136-0.655-0.369-0.892C17.998,13.535,17.674,13.4,17.343,13.4z"></path>
    </g>
  </g>
  <g id="download" data-iconmelon="Dripicons:771c165562503593a58090b8ed84c0ca">
    <g>
      <path d="M29.779,18.742c-0.991,0-1.794,0.803-1.794,1.794v7.877H4.015v-7.877c0-0.991-0.803-1.794-1.794-1.794
		c-0.99,0-1.793,0.803-1.793,1.794v9.67C0.428,31.197,1.23,32,2.221,32h27.559c0.99,0,1.793-0.803,1.793-1.794v-9.67
		C31.572,19.545,30.77,18.742,29.779,18.742z"></path>
      <path d="M14.731,22.788c0.337,0.337,0.793,0.525,1.269,0.525s0.932-0.188,1.269-0.525l7.232-7.232c0.701-0.7,0.701-1.836,0-2.537
		c-0.699-0.7-1.836-0.7-2.536,0l-4.171,4.172V1.794C17.794,0.803,16.991,0,16,0s-1.794,0.803-1.794,1.794v15.396l-4.17-4.171
		c-0.7-0.7-1.837-0.699-2.536,0c-0.701,0.701-0.701,1.837-0.001,2.537L14.731,22.788z"></path>
    </g>
  </g>
  <g id="phone" data-iconmelon="Dripicons:b5844de5a133517a62cf25fd8347a12d">
    <path d="M31.096,4.087c-0.024-0.024-0.049-0.048-0.074-0.07l-3.809-3.315c-0.476-0.452-1.119-0.7-1.817-0.7
	c-0.799,0-1.574,0.316-2.125,0.869c-0.04,0.039-0.077,0.082-0.112,0.125l-3.741,4.722c-0.993,1.069-0.971,2.748,0.069,3.79
	c0.069,0.068,0.145,0.13,0.226,0.185l1.884,1.253c-0.174,0.681-1.193,2.595-4.623,6.024c-3.403,3.403-5.337,4.436-6.027,4.62
	l-1.251-1.881c-0.054-0.081-0.116-0.156-0.185-0.225c-0.516-0.516-1.202-0.801-1.931-0.801c-0.696,0-1.352,0.26-1.859,0.73L1,23.153
	c-0.045,0.035-0.087,0.073-0.127,0.113c-1.098,1.1-1.167,2.889-0.166,3.941l3.315,3.809c0.022,0.026,0.045,0.051,0.069,0.075
	c0.603,0.603,1.527,0.907,2.746,0.907c0,0,0,0,0,0c3.886,0,10.799-2.979,16.493-8.673c3.26-3.261,5.902-7.208,7.438-11.112
	C31.486,10.39,32.955,5.946,31.096,4.087z M21.254,21.25c-5.39,5.39-11.675,7.813-14.417,7.813c-0.414,0-0.62-0.056-0.697-0.084
	l-3.17-3.642l4.548-3.603l1.214,1.824c0.025,0.038,0.052,0.074,0.081,0.11c0.462,0.571,1.15,0.887,1.938,0.887h0
	c1.849,0,4.641-1.854,8.297-5.513c3.751-3.751,5.604-6.595,5.507-8.452c-0.038-0.72-0.351-1.353-0.882-1.782
	c-0.036-0.029-0.072-0.057-0.11-0.082L21.74,7.514l3.603-4.548l3.646,3.174C29.563,7.42,27.743,14.761,21.254,21.25z"></path>
  </g>
  <g id="joystick" data-iconmelon="Dripicons:30232aae890d08db8cbf6220d5ef6043">
    <g>
      <path d="M20.089,10.008c-0.457,0-0.904,0.187-1.225,0.508c-0.325,0.321-0.507,0.769-0.507,1.225c0,0.457,0.183,0.904,0.507,1.226
		c0.321,0.321,0.768,0.507,1.225,0.507c0.453,0,0.901-0.186,1.225-0.507c0.321-0.324,0.507-0.769,0.507-1.226
		c0-0.456-0.186-0.903-0.507-1.225C20.99,10.194,20.542,10.008,20.089,10.008z"></path>
      <path d="M23.658,12.739c-0.457,0-0.904,0.186-1.225,0.507c-0.321,0.324-0.507,0.769-0.507,1.225c0,0.458,0.186,0.904,0.507,1.226
		c0.324,0.321,0.769,0.507,1.225,0.507c0.457,0,0.904-0.186,1.225-0.507c0.321-0.321,0.507-0.768,0.507-1.226
		c0-0.456-0.186-0.9-0.507-1.225C24.562,12.925,24.115,12.739,23.658,12.739z"></path>
      <path d="M11.73,12.162h-1.037v-1.038c0-0.435-0.353-0.787-0.787-0.787c-0.435,0-0.788,0.353-0.788,0.787v1.038H8.081
		c-0.435,0-0.788,0.353-0.788,0.787c0,0.436,0.353,0.787,0.788,0.787h1.037v1.037c0,0.436,0.353,0.788,0.788,0.788
		c0.435,0,0.787-0.353,0.787-0.788v-1.037h1.037c0.435,0,0.788-0.352,0.788-0.787C12.518,12.515,12.165,12.162,11.73,12.162z"></path>
      <path d="M28.484,10.37c0.303-0.979,0.184-2.003-0.353-2.938c-0.632-1.101-1.792-1.948-2.759-2.015
		c-0.051-0.003-0.104-0.005-0.159-0.005c-0.878,0-2.088,0.538-2.774,0.884c-2.165-0.359-4.381-0.541-6.595-0.541
		c-3.097,0-5.365,0.354-6.304,0.53c-0.732-0.367-2.047-0.93-2.913-0.868C5.661,5.483,4.501,6.331,3.869,7.432
		c-0.537,0.936-0.656,1.96-0.353,2.938C2.722,12.244,0,18.972,0,23.208c0,0.938,0.34,1.797,0.958,2.419
		c0.616,0.619,1.463,0.961,2.384,0.961c1.378,0,2.78-0.748,3.946-2.106c0.936-1.089,2.54-3.118,3.356-4.157
		c1.085,0.243,3.119,0.608,5.572,0.608c1.813,0,3.541-0.2,5.148-0.595c0.82,1.043,2.415,3.06,3.346,4.144
		c1.166,1.358,2.567,2.106,3.946,2.106c1.906,0,3.343-1.453,3.343-3.38C32,18.972,29.278,12.244,28.484,10.37z M28.657,24.068
		c-0.623,0-1.364-0.447-2.035-1.229c-1.226-1.428-3.76-4.678-3.786-4.711c-0.243-0.312-0.612-0.485-0.994-0.485
		c-0.119,0-0.24,0.017-0.358,0.052c-1.606,0.477-3.379,0.717-5.268,0.717c-3.22,0-5.679-0.71-5.702-0.717
		c-0.496-0.146-1.033,0.025-1.352,0.434c-0.026,0.033-2.56,3.283-3.786,4.711c-0.67,0.781-1.412,1.229-2.035,1.229
		c-0.249,0-0.456-0.075-0.597-0.218c-0.148-0.149-0.226-0.371-0.226-0.643c0-4.321,3.476-12.226,3.511-12.306
		c0.152-0.342,0.143-0.733-0.022-1.068c-0.169-0.341-0.179-0.657-0.03-0.996c0.215-0.49,0.664-0.821,0.855-0.902
		C7.166,7.974,8.045,8.33,8.747,8.714c0.271,0.149,0.588,0.192,0.891,0.122c0.024-0.005,2.482-0.562,6.207-0.562
		c2.213,0,4.428,0.193,6.583,0.575c0.284,0.05,0.574,0.002,0.826-0.136c0.694-0.381,1.601-0.747,1.91-0.78
		c0.19,0.079,0.644,0.41,0.859,0.904c0.149,0.339,0.139,0.655-0.03,0.996c-0.166,0.335-0.174,0.727-0.022,1.068
		c0.035,0.08,3.511,7.979,3.511,12.306C29.48,23.746,29.173,24.068,28.657,24.068z"></path>
    </g>
  </g>
  <g id="photo" data-iconmelon="Dripicons:070bf7bbb8a986e0caf32ffa5d894f36">
    <g>
      <path d="M16,9.464c-4.405,0-7.989,3.583-7.989,7.987c0,4.405,3.584,7.989,7.989,7.989s7.989-3.584,7.989-7.989
		C23.989,13.047,20.405,9.464,16,9.464z M16,22.62c-2.851,0-5.169-2.318-5.169-5.169c0-2.85,2.319-5.169,5.169-5.169
		s5.169,2.319,5.169,5.169C21.169,20.302,18.851,22.62,16,22.62z"></path>
      <path d="M17.432,13.521c-0.713-0.312-1.544,0.014-1.856,0.727c-0.312,0.713,0.014,1.545,0.727,1.856
		c0.011,0.005,1.077,0.51,0.967,1.327c-0.104,0.771,0.437,1.481,1.208,1.585c0.064,0.009,0.127,0.014,0.19,0.014
		c0.695,0,1.3-0.514,1.396-1.222C20.379,15.47,18.558,14.013,17.432,13.521z"></path>
      <path d="M16.205,18.83c-0.37,0-0.733,0.147-0.997,0.412c-0.261,0.261-0.413,0.624-0.413,0.997c0,0.37,0.151,0.733,0.413,0.994
		c0.261,0.264,0.627,0.416,0.997,0.416c0.37,0,0.733-0.152,0.998-0.416c0.261-0.261,0.412-0.624,0.412-0.994
		s-0.151-0.736-0.412-0.997C16.938,18.978,16.575,18.83,16.205,18.83z"></path>
      <path d="M30.59,9.073h-5.328L23.776,3.66c-0.168-0.612-0.724-1.036-1.359-1.036H9.583c-0.635,0-1.191,0.424-1.359,1.036
		L6.738,9.073H1.41C0.631,9.073,0,9.704,0,10.482v17.484c0,0.778,0.631,1.409,1.41,1.409H30.59c0.778,0,1.41-0.631,1.41-1.409
		V10.482C32,9.704,31.369,9.073,30.59,9.073z M29.181,26.558H2.819V11.893h4.994c0.635,0,1.191-0.425,1.359-1.037l1.486-5.413
		h10.684l1.486,5.413c0.168,0.612,0.725,1.037,1.359,1.037h4.994V26.558z"></path>
    </g>
  </g>
  <g id="user" data-iconmelon="Dripicons:778fc246ecdf87f79a9036c550c2b287">
    <g>
      <path d="M16,19.861c5.169,0,9.374-4.205,9.374-9.374S21.169,1.113,16,1.113s-9.374,4.205-9.374,9.374S10.831,19.861,16,19.861z
		 M16,3.933c3.614,0,6.555,2.94,6.555,6.555s-2.94,6.555-6.555,6.555s-6.555-2.94-6.555-6.555S12.386,3.933,16,3.933z"></path>
      <path d="M20.334,20.722c-0.461-0.146-0.967-0.046-1.337,0.268L16,23.524l-2.998-2.535c-0.37-0.313-0.876-0.414-1.337-0.268
		C9.718,21.34,0,24.667,0,29.478c0,0.778,0.631,1.409,1.41,1.409H30.59c0.778,0,1.41-0.631,1.41-1.409
		C32,24.667,22.282,21.34,20.334,20.722z M3.583,28.067c1.548-1.594,5.17-3.362,8.203-4.415l3.304,2.795
		c0.525,0.444,1.295,0.444,1.82,0l3.304-2.795c3.033,1.053,6.655,2.821,8.203,4.415H3.583z"></path>
    </g>
  </g>
  <g id="load" data-iconmelon="Dripicons:59fbe8cbaff7d4649ba4d6c66f23ee48">
    <g>
      <path d="M16,0c-0.866,0-1.568,0.703-1.568,1.568v5.989c0,0.867,0.702,1.569,1.568,1.569s1.568-0.702,1.568-1.569V1.568
		C17.568,0.703,16.866,0,16,0z"></path>
      <path d="M8.786,3.402c-0.509-0.7-1.49-0.854-2.191-0.346s-0.856,1.49-0.347,2.19l3.521,4.846c0.307,0.422,0.786,0.646,1.271,0.646
		c0.32,0,0.643-0.097,0.921-0.299c0.701-0.51,0.856-1.49,0.347-2.191L8.786,3.402z"></path>
      <path d="M1.79,13.032l5.696,1.852c0.161,0.052,0.325,0.077,0.485,0.077c0.661,0,1.276-0.422,1.491-1.084
		c0.268-0.824-0.183-1.709-1.007-1.977L2.76,10.049c-0.823-0.268-1.709,0.184-1.977,1.007C0.516,11.88,0.966,12.765,1.79,13.032z"></path>
      <path d="M9.462,18.124c-0.267-0.823-1.153-1.275-1.977-1.007L1.79,18.968c-0.824,0.268-1.274,1.152-1.007,1.977
		c0.215,0.663,0.83,1.084,1.491,1.084c0.161,0,0.324-0.024,0.485-0.077l5.696-1.851C9.279,19.833,9.73,18.948,9.462,18.124z"></path>
      <path d="M11.96,21.561c-0.701-0.509-1.682-0.354-2.191,0.348l-3.521,4.845c-0.509,0.701-0.354,1.683,0.347,2.191
		c0.278,0.202,0.601,0.3,0.921,0.3c0.485,0,0.963-0.225,1.27-0.646l3.521-4.845C12.816,23.051,12.661,22.07,11.96,21.561z"></path>
      <path d="M16,22.874c-0.866,0-1.568,0.702-1.568,1.569v5.988C14.432,31.298,15.134,32,16,32s1.568-0.702,1.568-1.568v-5.988
		C17.568,23.576,16.866,22.874,16,22.874z"></path>
      <path d="M22.231,21.908c-0.51-0.7-1.49-0.855-2.191-0.348c-0.701,0.51-0.856,1.49-0.347,2.192l3.521,4.845
		c0.307,0.422,0.785,0.646,1.271,0.646c0.319,0,0.643-0.098,0.921-0.3c0.7-0.509,0.855-1.49,0.347-2.191L22.231,21.908z"></path>
      <path d="M30.21,18.968l-5.696-1.851c-0.823-0.269-1.709,0.184-1.977,1.007c-0.268,0.824,0.184,1.709,1.008,1.977l5.695,1.851
		c0.161,0.053,0.324,0.077,0.485,0.077c0.661,0,1.276-0.421,1.491-1.084C31.484,20.12,31.033,19.235,30.21,18.968z"></path>
      <path d="M22.537,13.877c0.216,0.662,0.831,1.084,1.492,1.084c0.16,0,0.324-0.025,0.484-0.077l5.696-1.852
		c0.823-0.268,1.274-1.152,1.007-1.977c-0.268-0.823-1.152-1.274-1.977-1.007L23.545,11.9C22.721,12.168,22.27,13.053,22.537,13.877
		z"></path>
      <path d="M20.04,10.439c0.278,0.202,0.602,0.299,0.921,0.299c0.485,0,0.963-0.224,1.271-0.646l3.521-4.846
		c0.509-0.7,0.354-1.682-0.347-2.19c-0.702-0.51-1.683-0.354-2.191,0.346l-3.521,4.846C19.184,8.949,19.339,9.93,20.04,10.439z"></path>
    </g>
  </g>
  <g id="cloud" data-iconmelon="Dripicons:3a4ce32d908ed02fa27c8ddac68a244d">
    <g>
      <path d="M26.885,13.708c0.093-1.507-0.296-2.872-1.137-3.933c-0.973-1.228-2.461-1.931-4.083-1.931
		c-1.018,0-2.015,0.276-2.912,0.797c-1.673-2.343-4.031-3.658-6.641-3.658c-2.58,0-5.061,1.319-6.474,3.442
		c-1.141,1.714-1.474,3.712-0.979,5.738c-3.923,1.716-4.957,4.977-4.59,7.416c0.471,3.129,3.009,5.399,6.032,5.399
		c0.116,0,11.7,0.036,18.718,0.036c4.616,0,6.95-3.24,7.164-6.251C32.181,18.002,30.646,14.798,26.885,13.708z M29.378,20.579
		c-0.136,1.903-1.598,3.824-4.559,3.824c-7.014,0-18.594-0.037-18.714-0.037c-1.953,0-3.215-1.597-3.452-3.174
		c-0.338-2.247,1.166-4.113,4.023-4.992c0.353-0.108,0.643-0.361,0.799-0.694c0.156-0.334,0.165-0.719,0.022-1.059
		c-0.68-1.623-0.567-3.248,0.315-4.574c0.935-1.404,2.582-2.276,4.299-2.276c2.089,0,3.911,1.264,5.129,3.561
		c0.193,0.362,0.546,0.614,0.953,0.678c0.405,0.063,0.819-0.068,1.114-0.356c0.675-0.658,1.512-1.021,2.357-1.021
		c0.82,0,1.562,0.344,2.037,0.941c0.583,0.735,0.736,1.783,0.444,3.031c-0.083,0.357-0.013,0.732,0.193,1.034
		c0.207,0.304,0.531,0.505,0.894,0.558C28.289,16.459,29.517,18.626,29.378,20.579z"></path>
      <path d="M11.645,8.907c-2.688,0.237-3.509,2.382-3.404,3.765c0.045,0.601,0.546,1.058,1.139,1.058c0.029,0,0.058-0.001,0.087-0.003
		c0.629-0.049,1.101-0.597,1.054-1.227c-0.021-0.279,0.012-1.199,1.326-1.315c0.628-0.056,1.094-0.61,1.038-1.239
		C12.829,9.316,12.274,8.849,11.645,8.907z"></path>
    </g>
  </g>
  <g id="menu" data-iconmelon="Dripicons:7a94fef4485136d7a7fa3ea7105f37b5">
    <g>
      <path d="M2.674,6.713h26.652C30.803,6.713,32,5.517,32,4.04s-1.197-2.674-2.674-2.674H2.674C1.197,1.366,0,2.563,0,4.04
		S1.197,6.713,2.674,6.713z"></path>
      <path d="M29.326,13.326H2.674C1.197,13.326,0,14.523,0,15.999c0,1.477,1.197,2.674,2.674,2.674h26.652
		c1.477,0,2.674-1.197,2.674-2.674C32,14.523,30.803,13.326,29.326,13.326z"></path>
      <path d="M29.326,25.287H2.674C1.197,25.287,0,26.483,0,27.96s1.197,2.674,2.674,2.674h26.652c1.477,0,2.674-1.197,2.674-2.674
		S30.803,25.287,29.326,25.287z"></path>
    </g>
  </g>
  <g id="home" data-iconmelon="Dripicons:ca7d5421aabc19255467a08a7e9f7cf8">
    <g>
      <path d="M31.241,14.659L16.996,0.413C16.732,0.148,16.373,0,16,0c-0.374,0-0.732,0.148-0.997,0.413L0.758,14.659
		c-0.55,0.551-0.55,1.443,0,1.993c0.551,0.551,1.443,0.551,1.994,0L16,3.403l13.248,13.249c0.274,0.275,0.636,0.413,0.996,0.413
		s0.722-0.138,0.997-0.413C31.792,16.103,31.792,15.21,31.241,14.659z"></path>
      <path d="M25.812,15.603c-0.778,0-1.41,0.632-1.41,1.41v12.168h-3.604v-8.562c0-0.778-0.631-1.41-1.409-1.41H12.61
		c-0.778,0-1.409,0.632-1.409,1.41v8.562H7.597V17.013c0-0.778-0.631-1.41-1.409-1.41c-0.779,0-1.41,0.632-1.41,1.41V30.59
		c0,0.779,0.631,1.41,1.41,1.41h6.423c0.778,0,1.41-0.631,1.41-1.41v-8.562h3.958v8.562c0,0.779,0.631,1.41,1.41,1.41h6.424
		c0.778,0,1.41-0.631,1.41-1.41V17.013C27.223,16.234,26.591,15.603,25.812,15.603z"></path>
    </g>
  </g>
  <g id="info" data-iconmelon="Dripicons:9714327d3f7e3130274bd1b3f8bd4c52">
    <g>
      <path d="M18.143,21.74l-1.353,0.589l1.759-8.93c0.097-0.491-0.101-0.995-0.508-1.288c-0.406-0.294-0.946-0.324-1.383-0.079
		L13.4,13.867c-0.618,0.349-0.836,1.133-0.489,1.75c0.349,0.619,1.132,0.837,1.75,0.489l0.83-0.468l-1.694,8.599
		c-0.092,0.469,0.083,0.95,0.455,1.249c0.232,0.188,0.517,0.283,0.805,0.283c0.174,0,0.348-0.035,0.513-0.106l3.599-1.568
		c0.65-0.283,0.948-1.04,0.665-1.689C19.549,21.754,18.792,21.456,18.143,21.74z"></path>
      <path d="M17.29,9.635c0.484,0,0.954-0.195,1.295-0.536c0.341-0.341,0.539-0.814,0.539-1.299s-0.198-0.958-0.539-1.296
		c-0.342-0.342-0.815-0.539-1.295-0.539c-0.485,0-0.958,0.197-1.299,0.539c-0.341,0.338-0.536,0.812-0.536,1.296
		s0.194,0.958,0.536,1.299S16.805,9.635,17.29,9.635z"></path>
      <path d="M16,0C7.178,0,0,7.178,0,16s7.178,16,16,16s16-7.178,16-16S24.822,0,16,0z M16,29.064C8.796,29.064,2.936,23.203,2.936,16
		C2.936,8.796,8.796,2.936,16,2.936S29.064,8.796,29.064,16C29.064,23.203,23.204,29.064,16,29.064z"></path>
    </g>
  </g>
  <g id="question" data-iconmelon="Dripicons:72ae2deecdce184098cc98a11df4a02c">
    <g>
      <path d="M15.873,5.96c-5.392,0-6.572,3.971-6.572,5.501c0,0.811,0.657,1.478,1.468,1.478c0.811,0,1.468-0.647,1.468-1.458
		c0.018-0.605,0.332-2.585,3.637-2.585c1.623,0,2.822,0.425,3.563,1.26c0.915,1.03,0.866,2.362,0.803,2.887
		c-0.188,1.559-1.054,2.35-2.575,2.35c-2.694,0-3.259,1.47-3.259,2.703v1.236c0,0.811,0.657,1.468,1.468,1.468
		c0.811,0,1.468-0.657,1.468-1.468v-0.993c0.085-0.006,0.192-0.011,0.323-0.011c2.367,0,5.053-1.296,5.49-4.936
		c0.233-1.941-0.321-3.831-1.522-5.185C20.723,7.182,18.986,5.96,15.873,5.96z"></path>
      <path d="M15.873,22.251c-0.484,0-0.958,0.198-1.299,0.54c-0.341,0.341-0.536,0.814-0.536,1.298c0,0.481,0.194,0.955,0.536,1.296
		c0.345,0.342,0.818,0.539,1.299,0.539s0.954-0.197,1.299-0.539c0.342-0.341,0.536-0.814,0.536-1.296
		c0-0.483-0.194-0.957-0.536-1.298C16.827,22.449,16.357,22.251,15.873,22.251z"></path>
      <path d="M16,0C7.178,0,0,7.178,0,16s7.178,16,16,16s16-7.178,16-16S24.822,0,16,0z M16,29.064C8.796,29.064,2.936,23.203,2.936,16
		C2.936,8.796,8.796,2.936,16,2.936S29.064,8.796,29.064,16C29.064,23.203,23.204,29.064,16,29.064z"></path>
    </g>
  </g>
  <g id="alert" data-iconmelon="Dripicons:9202434254c4147a17694cca39d24192">
    <g>
      <path d="M31.734,27.775L17.242,2.673c-0.257-0.445-0.731-0.719-1.245-0.719s-0.989,0.273-1.245,0.719L0.193,27.889
		c-0.257,0.445-0.257,0.994,0,1.438c0.256,0.445,0.731,0.719,1.245,0.719h29.117c0.003,0,0.005,0,0.007,0
		c0.794,0,1.438-0.644,1.438-1.438C32,28.298,31.902,28.011,31.734,27.775z M3.928,27.17L15.997,6.268L28.065,27.17H3.928z"></path>
      <path d="M14.559,12.694v6.415c0,0.794,0.644,1.438,1.438,1.438s1.438-0.644,1.438-1.438v-6.415c0-0.794-0.644-1.438-1.438-1.438
		S14.559,11.9,14.559,12.694z"></path>
      <path d="M15.995,21.817c-0.471,0-0.935,0.19-1.269,0.525c-0.334,0.334-0.528,0.798-0.528,1.272c0,0.471,0.194,0.934,0.528,1.269
		c0.334,0.335,0.798,0.528,1.269,0.528c0.475,0,0.938-0.193,1.272-0.528c0.334-0.335,0.528-0.798,0.528-1.269
		c0-0.475-0.194-0.938-0.528-1.272C16.933,22.008,16.469,21.817,15.995,21.817z"></path>
    </g>
  </g>
  <g id="align-left" data-iconmelon="Dripicons:e909e88ee39c66513e8b0794c93531a1">
    <g>
      <path d="M1.777,4.975h28.444C31.203,4.975,32,4.18,32,3.197s-0.797-1.778-1.778-1.778H1.777C0.796,1.419,0,2.215,0,3.197
		S0.796,4.975,1.777,4.975z"></path>
      <path d="M30.222,9.972H1.777C0.796,9.972,0,10.768,0,11.75c0,0.981,0.796,1.778,1.777,1.778h28.444
		c0.981,0,1.778-0.797,1.778-1.778C32,10.768,31.203,9.972,30.222,9.972z"></path>
      <path d="M30.222,18.498H1.777C0.796,18.498,0,19.295,0,20.276c0,0.982,0.796,1.778,1.777,1.778h28.444
		c0.981,0,1.778-0.796,1.778-1.778C32,19.295,31.203,18.498,30.222,18.498z"></path>
      <path d="M15.982,27.025H1.885c-0.982,0-1.779,0.796-1.779,1.777c0,0.982,0.797,1.778,1.779,1.778h14.098
		c0.982,0,1.778-0.796,1.778-1.778C17.761,27.821,16.965,27.025,15.982,27.025z"></path>
    </g>
  </g>
  <g id="align-right" data-iconmelon="Dripicons:3958246ec66313b3411be7f7a3e17d92">
    <g>
      <path d="M30.223,4.975C31.204,4.975,32,4.179,32,3.197c0-0.982-0.796-1.778-1.777-1.778H1.778C0.797,1.419,0,2.215,0,3.197
		c0,0.981,0.797,1.777,1.778,1.777H30.223z"></path>
      <path d="M30.223,9.971H13.87c-0.981,0-1.777,0.797-1.777,1.778c0,0.982,0.796,1.778,1.777,1.778h16.353
		c0.981,0,1.777-0.796,1.777-1.778C32,10.768,31.204,9.971,30.223,9.971z"></path>
      <path d="M30.223,18.498H9.046c-0.981,0-1.778,0.796-1.778,1.778c0,0.981,0.797,1.778,1.778,1.778h21.177
		c0.981,0,1.777-0.797,1.777-1.778C32,19.294,31.204,18.498,30.223,18.498z"></path>
      <path d="M30.115,27.025H3.199c-0.982,0-1.778,0.795-1.778,1.777s0.796,1.778,1.778,1.778h26.916c0.982,0,1.779-0.796,1.779-1.778
		S31.098,27.025,30.115,27.025z"></path>
    </g>
  </g>
  <g id="grid" data-iconmelon="Dripicons:7c512ef2882bb617d7318c954b018df3">
    <g>
      <path d="M10.798,1.954H3.232C1.45,1.954,0,3.403,0,5.186v5.62c0,1.781,1.45,3.231,3.232,3.231h7.565
		c1.782,0,3.232-1.45,3.232-3.231v-5.62C14.03,3.403,12.58,1.954,10.798,1.954z M11.094,10.806c0,0.163-0.133,0.296-0.296,0.296
		H3.232c-0.164,0-0.296-0.133-0.296-0.296v-5.62c0-0.163,0.133-0.296,0.296-0.296h7.565c0.164,0,0.296,0.133,0.296,0.296V10.806z"></path>
      <path d="M28.768,1.954h-7.565c-1.782,0-3.232,1.449-3.232,3.231v5.62c0,1.781,1.45,3.231,3.232,3.231h7.565
		c1.783,0,3.232-1.45,3.232-3.231v-5.62C32,3.403,30.55,1.954,28.768,1.954z M29.064,10.806c0,0.163-0.133,0.296-0.296,0.296h-7.565
		c-0.164,0-0.296-0.133-0.296-0.296v-5.62c0-0.163,0.133-0.296,0.296-0.296h7.565c0.164,0,0.296,0.133,0.296,0.296V10.806z"></path>
      <path d="M10.798,17.963H3.232C1.45,17.963,0,19.413,0,21.195v5.619c0,1.782,1.45,3.231,3.232,3.231h7.565
		c1.782,0,3.232-1.449,3.232-3.231v-5.619C14.03,19.413,12.58,17.963,10.798,17.963z M11.094,26.814
		c0,0.163-0.133,0.296-0.296,0.296H3.232c-0.164,0-0.296-0.133-0.296-0.296v-5.619c0-0.164,0.133-0.297,0.296-0.297h7.565
		c0.164,0,0.296,0.133,0.296,0.297V26.814z"></path>
      <path d="M28.768,17.963h-7.565c-1.782,0-3.232,1.45-3.232,3.232v5.619c0,1.782,1.45,3.231,3.232,3.231h7.565
		c1.783,0,3.232-1.449,3.232-3.231v-5.619C32,19.413,30.55,17.963,28.768,17.963z M29.064,26.814c0,0.163-0.133,0.296-0.296,0.296
		h-7.565c-0.164,0-0.296-0.133-0.296-0.296v-5.619c0-0.164,0.133-0.297,0.296-0.297h7.565c0.164,0,0.296,0.133,0.296,0.297V26.814z"></path>
    </g>
  </g>
  <g id="align-center" data-iconmelon="Dripicons:1b18ddbab7e9c3f0f4e2452154a52a57">
    <g>
      <path d="M30.222,1.419H1.778C0.796,1.419,0,2.215,0,3.197s0.796,1.778,1.778,1.778h28.443C31.204,4.976,32,4.18,32,3.197
		S31.204,1.419,30.222,1.419z"></path>
      <path d="M24.176,13.528c0.982,0,1.778-0.797,1.778-1.778c0-0.982-0.796-1.778-1.778-1.778H7.824c-0.982,0-1.778,0.796-1.778,1.778
		c0,0.981,0.796,1.778,1.778,1.778H24.176z"></path>
      <path d="M3.634,20.276c0,0.982,0.796,1.778,1.778,1.778h21.176c0.982,0,1.778-0.796,1.778-1.778c0-0.981-0.796-1.778-1.778-1.778
		H5.412C4.43,18.498,3.634,19.295,3.634,20.276z"></path>
      <path d="M29.459,27.024H2.542c-0.982,0-1.778,0.796-1.778,1.778s0.796,1.778,1.778,1.778h26.917c0.981,0,1.777-0.796,1.777-1.778
		S30.44,27.024,29.459,27.024z"></path>
    </g>
  </g>
  <g id="align-left-2" data-iconmelon="Dripicons:d0d616bcc629113f76150660d8826ab7">
    <g>
      <path d="M30.222,1.419H1.778C0.796,1.419,0,2.215,0,3.197s0.796,1.778,1.778,1.778h28.443C31.204,4.976,32,4.18,32,3.197
		S31.204,1.419,30.222,1.419z"></path>
      <path d="M1.778,13.528H18.13c0.982,0,1.778-0.797,1.778-1.778c0-0.982-0.796-1.778-1.778-1.778H1.778C0.796,9.972,0,10.768,0,11.75
		C0,12.731,0.796,13.528,1.778,13.528z"></path>
      <path d="M1.778,22.055h21.176c0.981,0,1.777-0.796,1.777-1.778c0-0.981-0.796-1.778-1.777-1.778H1.778
		C0.796,18.498,0,19.295,0,20.276C0,21.259,0.796,22.055,1.778,22.055z"></path>
      <path d="M28.802,27.024H1.885c-0.982,0-1.778,0.796-1.778,1.778s0.796,1.778,1.778,1.778h26.917c0.982,0,1.778-0.796,1.778-1.778
		S29.784,27.024,28.802,27.024z"></path>
    </g>
  </g>
  <g id="list" data-iconmelon="Dripicons:4b5f066fd7d6a813505df82048fb16d3">
    <g>
      <path d="M10.494,7.059h19.413C31.062,7.059,32,6.12,32,4.965c0-1.157-0.938-2.095-2.094-2.095H10.494
		C9.337,2.87,8.4,3.808,8.4,4.965C8.4,6.12,9.337,7.059,10.494,7.059z"></path>
      <path d="M29.906,13.905H10.494C9.337,13.905,8.4,14.843,8.4,16c0,1.155,0.938,2.094,2.094,2.094h19.413
		C31.062,18.094,32,17.155,32,16C32,14.843,31.062,13.905,29.906,13.905z"></path>
      <path d="M29.906,24.941H10.494c-1.156,0-2.094,0.938-2.094,2.094s0.938,2.095,2.094,2.095h19.413c1.156,0,2.094-0.938,2.094-2.095
		S31.062,24.941,29.906,24.941z"></path>
      <path d="M2.269,2.696c-0.6,0-1.183,0.241-1.605,0.664C0.241,3.782,0,4.369,0,4.965c0,0.598,0.241,1.181,0.663,1.603
		s1.005,0.666,1.605,0.666c0.597,0,1.18-0.244,1.602-0.666s0.666-1.005,0.666-1.603c0-0.596-0.244-1.183-0.666-1.604
		C3.448,2.938,2.865,2.696,2.269,2.696z"></path>
      <path d="M2.269,13.731c-0.6,0-1.183,0.241-1.605,0.663C0.241,14.817,0,15.403,0,16s0.241,1.18,0.663,1.603
		c0.422,0.422,1.005,0.666,1.605,0.666c0.597,0,1.18-0.244,1.602-0.666C4.293,17.18,4.537,16.597,4.537,16s-0.244-1.183-0.666-1.605
		C3.448,13.973,2.865,13.731,2.269,13.731z"></path>
      <path d="M2.269,24.767c-0.6,0-1.183,0.244-1.605,0.663C0.241,25.852,0,26.438,0,27.035c0,0.596,0.241,1.183,0.663,1.604
		c0.422,0.423,1.005,0.664,1.605,0.664c0.597,0,1.18-0.241,1.602-0.664c0.422-0.422,0.666-1.009,0.666-1.604
		c0-0.598-0.244-1.181-0.666-1.605C3.448,25.011,2.865,24.767,2.269,24.767z"></path>
    </g>
  </g>
  <g id="grid-2" data-iconmelon="Dripicons:ccf556a5e3bc7b414b7ee5074253638b">
    <g>
      <path d="M7.893,14.884H2.552C1.145,14.884,0,13.739,0,12.333V8.998c0-1.406,1.145-2.551,2.552-2.551h5.341
		c1.407,0,2.552,1.145,2.552,2.551v3.335C10.445,13.739,9.3,14.884,7.893,14.884z M2.612,12.272h5.22V9.06h-5.22V12.272z"></path>
      <path d="M29.448,14.884h-14.21c-1.407,0-2.552-1.145-2.552-2.551V8.998c0-1.406,1.145-2.551,2.552-2.551h14.21
		C30.855,6.447,32,7.592,32,8.998v3.335C32,13.739,30.855,14.884,29.448,14.884z M15.298,12.272h14.089V9.06H15.298V12.272z"></path>
      <path d="M7.893,25.553H2.552C1.145,25.553,0,24.408,0,23.001v-3.334c0-1.406,1.145-2.551,2.552-2.551h5.341
		c1.407,0,2.552,1.145,2.552,2.551v3.334C10.445,24.408,9.3,25.553,7.893,25.553z M2.612,22.94h5.22v-3.213h-5.22V22.94z"></path>
      <path d="M29.448,25.553h-14.21c-1.407,0-2.552-1.145-2.552-2.552v-3.334c0-1.406,1.145-2.551,2.552-2.551h14.21
		c1.407,0,2.552,1.145,2.552,2.551v3.334C32,24.408,30.855,25.553,29.448,25.553z M15.298,22.94h14.089v-3.213H15.298V22.94z"></path>
    </g>
  </g>
  <g id="trash" data-iconmelon="Dripicons:3606e3b18586852e33699d0615f1f04e">
    <g>
      <path d="M25.885,8.655c-0.825,0-1.493,0.669-1.493,1.494v18.863H7.608V10.149c0-0.825-0.669-1.494-1.494-1.494
		s-1.494,0.669-1.494,1.494v20.356C4.621,31.331,5.29,32,6.115,32h19.771c0.825,0,1.494-0.669,1.494-1.494V10.149
		C27.379,9.324,26.71,8.655,25.885,8.655z"></path>
      <path d="M29.574,3.867h-8.891V0.934C20.683,0.418,20.265,0,19.75,0h-7.5c-0.516,0-0.934,0.418-0.934,0.934v2.934H2.426
		c-0.825,0-1.494,0.669-1.494,1.494c0,0.824,0.669,1.493,1.494,1.493h27.148c0.825,0,1.494-0.669,1.494-1.493
		C31.068,4.536,30.399,3.867,29.574,3.867z M13.183,1.866h5.633v2.001h-5.633V1.866z"></path>
      <path d="M12.446,25.878v-14.7c0-0.516-0.418-0.934-0.934-0.934c-0.515,0-0.933,0.418-0.933,0.934v14.7
		c0,0.516,0.418,0.934,0.933,0.934C12.028,26.812,12.446,26.394,12.446,25.878z"></path>
      <path d="M16.933,25.917V11.218c0-0.516-0.417-0.934-0.933-0.934s-0.934,0.418-0.934,0.934v14.699c0,0.516,0.418,0.934,0.934,0.934
		S16.933,26.433,16.933,25.917z"></path>
      <path d="M21.367,25.957v-14.7c0-0.516-0.418-0.934-0.934-0.934S19.5,10.741,19.5,11.257v14.7c0,0.516,0.417,0.934,0.933,0.934
		S21.367,26.473,21.367,25.957z"></path>
    </g>
  </g>
  <g id="stock-graph" data-iconmelon="Dripicons:d3fb09a832aece2f15432fd165fd663c">
    <path d="M1.875,28.648c-0.331,0-0.666-0.088-0.97-0.271c-0.887-0.536-1.171-1.689-0.634-2.576l4.302-7.107
	c0.324-0.535,0.895-0.875,1.52-0.902c0.618-0.029,1.224,0.256,1.596,0.761l1.747,2.368l3.82-6.393
	c0.32-0.536,0.885-0.877,1.508-0.911c0.629-0.034,1.222,0.243,1.598,0.74l3.313,4.368l8.848-14.476
	c0.541-0.885,1.695-1.163,2.579-0.622c0.885,0.54,1.163,1.695,0.622,2.579L21.442,23.028c-0.323,0.53-0.888,0.865-1.508,0.896
	c-0.612,0.032-1.214-0.246-1.589-0.74l-3.295-4.346l-3.842,6.428c-0.322,0.539-0.893,0.882-1.52,0.912
	c-0.62,0.035-1.228-0.255-1.601-0.761l-1.757-2.383l-2.851,4.709C3.129,28.326,2.51,28.648,1.875,28.648z"></path>
  </g>
  <g id="pie" data-iconmelon="Dripicons:49b4fbb264fded9e83e5670339267de4">
    <g>
      <path d="M14.511,13.318V1.192C14.511,0.534,13.977,0,13.318,0C5.975,0,0,5.975,0,13.318c0,0.658,0.534,1.192,1.192,1.192h12.126
		C13.977,14.511,14.511,13.977,14.511,13.318z M12.125,12.125H2.45c0.554-5.077,4.598-9.121,9.675-9.675V12.125z"></path>
      <path d="M17.705,2.156c-0.753,0-1.363,0.61-1.363,1.362v12.822H3.52c-0.753,0-1.363,0.61-1.363,1.363
		C2.156,25.587,8.85,32,17.078,32C25.306,32,32,25.306,32,17.077C32,8.989,25.453,2.156,17.705,2.156z M17.078,29.273
		c-6.239,0-11.398-4.467-12.111-10.206h12.738c0.753,0,1.363-0.61,1.363-1.363V4.971c5.656,0.736,10.205,5.981,10.205,12.106
		C29.273,23.803,23.803,29.273,17.078,29.273z"></path>
    </g>
  </g>
  <g id="like" data-iconmelon="Dripicons:c2f91e9200879ade2db90e9a3e07f0e6">
    <g>
      <path d="M31.555,16.246c-0.248-1.705-1.514-3.078-3.388-3.673c-0.992-0.315-2.674-0.735-4.042-1.062
		c2.509-3.592,3.003-7.304,2.069-9.428C25.613,0.76,24.512,0,23.175,0c-2.584,0-3.259,2.164-3.751,3.743
		c-0.073,0.234-0.148,0.477-0.231,0.723c-0.458,1.36-2.752,3.816-6.103,5.685c-2.508,1.398-4.91,3.311-5.011,3.391
		c-0.334,0.268-0.53,0.674-0.53,1.102v13.58c0,0.453,0.218,0.879,0.586,1.144C10.153,30.82,17.271,32,20.847,32
		c1.86,0,2.592-0.293,2.981-0.512c1.605-0.908,3.741-6.047,5.302-10.37C30.93,19.755,31.81,18,31.555,16.246z M27.16,19.062
		c-0.248,0.168-0.435,0.411-0.536,0.693c-1.397,3.91-3.399,8.518-4.205,9.282c-0.119,0.038-0.536,0.143-1.572,0.143
		c-3.341,0-8.529-0.996-10.479-1.8V15.335c0.814-0.615,2.452-1.806,4.094-2.722c3.655-2.039,6.63-4.952,7.402-7.25
		c0.089-0.266,0.171-0.527,0.25-0.78c0.55-1.764,0.689-1.764,1.06-1.764c0.099,0,0.264,0,0.438,0.398
		c0.605,1.379,0.066,4.837-3.03,8.207c-0.34,0.371-0.458,0.896-0.307,1.376c0.151,0.479,0.546,0.843,1.038,0.953
		c0.042,0.01,4.275,0.957,5.998,1.506c0.821,0.261,1.364,0.781,1.452,1.392C28.876,17.416,28.291,18.296,27.16,19.062z"></path>
      <path d="M2.692,12.189c-1.265,0-2.291,1.025-2.291,2.291v13.861c0,1.265,1.026,2.291,2.291,2.291s2.291-1.026,2.291-2.291V14.48
		C4.983,13.215,3.958,12.189,2.692,12.189z"></path>
    </g>
  </g>
  <g id="signal" data-iconmelon="Dripicons:79154da97fa6cb8c6dc0d70a3599ebb6">
    <g>
      <path d="M25.359,0c-1.381,0-2.5,1.119-2.5,2.5v27c0,1.381,1.119,2.5,2.5,2.5s2.5-1.119,2.5-2.5v-27C27.859,1.119,26.74,0,25.359,0z
		"></path>
      <path d="M16.001,8.909c-1.381,0-2.5,1.119-2.5,2.5V29.5c0,1.381,1.119,2.5,2.5,2.5s2.5-1.119,2.5-2.5V11.409
		C18.501,10.028,17.382,8.909,16.001,8.909z"></path>
      <path d="M6.641,17.82c-1.381,0-2.5,1.119-2.5,2.5v9.18c0,1.381,1.119,2.5,2.5,2.5s2.5-1.119,2.5-2.5v-9.18
		C9.141,18.939,8.021,17.82,6.641,17.82z"></path>
    </g>
  </g>
  <g id="star" data-iconmelon="Dripicons:4addb86e829302a41d0bf7e19f7862aa">
    <path d="M25.017,31.285c-0.267,0-0.534-0.076-0.767-0.227L16,25.707l-8.25,5.352c-0.492,0.318-1.13,0.301-1.603-0.049
	c-0.473-0.348-0.68-0.952-0.521-1.517l2.584-9.168L0.499,13.8c-0.438-0.37-0.607-0.969-0.43-1.513
	c0.178-0.545,0.667-0.928,1.239-0.969l9.248-0.667l4.161-9.113c0.229-0.502,0.73-0.824,1.282-0.824c0.552,0,1.053,0.322,1.282,0.824
	l4.162,9.113l9.248,0.667c0.572,0.041,1.062,0.424,1.239,0.969c0.178,0.544,0.008,1.143-0.43,1.513l-7.711,6.525l2.583,9.168
	c0.16,0.564-0.047,1.169-0.52,1.517C25.605,31.193,25.312,31.285,25.017,31.285z M16,22.617c0.267,0,0.534,0.076,0.767,0.228
	l5.878,3.812l-1.814-6.44c-0.15-0.531,0.024-1.102,0.446-1.458l5.764-4.877l-6.633-0.479c-0.514-0.036-0.967-0.351-1.181-0.82
	L16,5.518l-3.226,7.065c-0.214,0.47-0.667,0.784-1.181,0.82L4.96,13.882l5.764,4.877c0.422,0.356,0.596,0.927,0.446,1.458
	l-1.815,6.44l5.878-3.812C15.466,22.693,15.733,22.617,16,22.617z"></path>
  </g>
  <g id="heart" data-iconmelon="Dripicons:e1608c42fe1d6bc2a32a882fc2e3b93f">
    <g>
      <path d="M31.18,7.134c-1.506-3.376-4.706-5.557-8.15-5.557c-3.489,0-5.73,1.552-7.03,3.208c-1.3-1.656-3.541-3.208-7.03-3.208
		c-3.444,0-6.643,2.181-8.149,5.557c-1.558,3.489-0.871,7.374,1.836,10.392c6.555,7.309,12.348,12.489,12.405,12.54
		c0.267,0.238,0.603,0.357,0.938,0.357s0.671-0.119,0.938-0.357c0.058-0.051,5.85-5.231,12.405-12.54
		C32.051,14.508,32.737,10.623,31.18,7.134z M27.245,15.644C22.341,21.11,17.878,25.36,16,27.103
		C14.122,25.36,9.659,21.11,4.755,15.644c-1.972-2.198-2.467-4.881-1.361-7.36C4.432,5.958,6.673,4.396,8.97,4.396
		c4.543,0,5.562,3.377,5.661,3.75c0.154,0.631,0.72,1.075,1.369,1.075s1.215-0.444,1.369-1.075c0.038-0.153,0.972-3.75,5.661-3.75
		c2.297,0,4.538,1.562,5.576,3.887C29.712,10.763,29.216,13.445,27.245,15.644z"></path>
      <path d="M23.015,5.933c-0.773-0.107-1.482,0.436-1.587,1.207c-0.105,0.771,0.435,1.481,1.207,1.586
		c0.073,0.011,1.809,0.275,1.974,2.756c0.05,0.745,0.669,1.316,1.405,1.316c0.031,0,0.063-0.001,0.095-0.003
		c0.777-0.052,1.364-0.724,1.313-1.5C27.169,7.494,24.429,6.125,23.015,5.933z"></path>
      <path d="M24.308,13.407c-0.37,0-0.733,0.151-0.997,0.412c-0.261,0.261-0.412,0.624-0.412,0.998c0,0.369,0.151,0.732,0.412,0.996
		c0.264,0.262,0.627,0.413,0.997,0.413c0.37,0,0.733-0.151,0.998-0.413c0.261-0.264,0.412-0.627,0.412-0.996
		c0-0.374-0.151-0.737-0.412-0.998C25.041,13.559,24.678,13.407,24.308,13.407z"></path>
    </g>
  </g>
  <g id="message" data-iconmelon="Dripicons:5eb3c3e3fd5f374b7457fc626b41c7e0">
    <path d="M31.997,8.048c-0.001-0.052-0.009-0.104-0.016-0.156c-0.005-0.037-0.008-0.075-0.016-0.111
	c-0.01-0.044-0.026-0.087-0.04-0.13c-0.014-0.042-0.025-0.084-0.043-0.124c-0.016-0.035-0.037-0.068-0.056-0.102
	c-0.024-0.045-0.048-0.09-0.077-0.132c-0.005-0.007-0.008-0.015-0.014-0.022c-0.019-0.025-0.042-0.045-0.062-0.069
	c-0.032-0.037-0.063-0.075-0.099-0.108c-0.032-0.03-0.066-0.056-0.1-0.083c-0.035-0.028-0.069-0.055-0.107-0.079
	c-0.037-0.024-0.076-0.043-0.115-0.062c-0.039-0.02-0.078-0.041-0.119-0.057c-0.041-0.016-0.084-0.027-0.126-0.039
	c-0.042-0.011-0.083-0.024-0.127-0.032c-0.048-0.009-0.098-0.012-0.146-0.015c-0.031-0.002-0.061-0.009-0.092-0.009H1.355
	c-0.031,0-0.06,0.007-0.091,0.009c-0.05,0.003-0.1,0.006-0.148,0.015C1.074,6.75,1.033,6.762,0.992,6.773
	c-0.043,0.012-0.087,0.024-0.129,0.04c-0.04,0.016-0.077,0.035-0.115,0.055c-0.041,0.02-0.081,0.04-0.119,0.064
	C0.593,6.956,0.56,6.982,0.525,7.008C0.49,7.036,0.455,7.062,0.422,7.094c-0.035,0.033-0.065,0.07-0.097,0.107
	c-0.021,0.024-0.044,0.044-0.062,0.07C0.257,7.278,0.254,7.286,0.249,7.293C0.22,7.335,0.196,7.38,0.172,7.425
	c-0.02,0.034-0.04,0.067-0.056,0.103c-0.018,0.04-0.029,0.082-0.043,0.124c-0.015,0.043-0.03,0.086-0.04,0.13
	c-0.008,0.036-0.01,0.074-0.016,0.111C0.011,7.944,0.003,7.996,0.002,8.048C0.002,8.057,0,8.065,0,8.074v15.853
	c0,0.749,0.606,1.356,1.355,1.356h29.288c0.749,0,1.356-0.607,1.356-1.356V8.074C32,8.065,31.997,8.057,31.997,8.048z M26.504,9.429
	l-10.505,7.71L5.495,9.429H26.504z M2.711,22.57V10.75l12.486,9.164c0.238,0.175,0.521,0.263,0.802,0.263
	c0.282,0,0.563-0.088,0.803-0.263l12.485-9.164v11.82H2.711z"></path>
  </g>
  <g id="printer" data-iconmelon="Dripicons:217a1632a234041656b7af073d62ee3a">
    <g>
      <path d="M30.644,5.853h-7.009V1.678c0-0.468-0.38-0.848-0.848-0.848H9.213c-0.469,0-0.848,0.379-0.848,0.848v4.175h-7.01
		C0.606,5.853,0,6.46,0,7.209V23.14c0,0.749,0.606,1.356,1.355,1.356h5.319l-0.841,5.503c-0.045,0.293,0.041,0.591,0.234,0.816
		c0.192,0.225,0.475,0.354,0.771,0.354h18.32c0,0,0.005,0,0.006,0c0.562,0,1.018-0.455,1.018-1.017c0-0.093-0.013-0.184-0.036-0.27
		l-0.823-5.387h5.319c0.749,0,1.356-0.607,1.356-1.356V7.209C32,6.46,31.393,5.853,30.644,5.853z M10.06,2.526h11.88v3.327H10.06
		V2.526z M8.023,29.135l1.385-9.06h13.184l1.384,9.06H8.023z M29.287,21.784H24.91l-0.439-2.878
		c-0.076-0.497-0.504-0.863-1.006-0.863H8.534c-0.502,0-0.93,0.367-1.005,0.863L7.09,21.784H2.711V8.565h26.576V21.784z"></path>
      <path d="M7.395,13.084h3.282c0.562,0,1.017-0.456,1.017-1.017c0-0.562-0.455-1.017-1.017-1.017H7.395
		c-0.562,0-1.017,0.455-1.017,1.017C6.378,12.629,6.833,13.084,7.395,13.084z"></path>
    </g>
  </g>
  <g id="edit" data-iconmelon="Dripicons:d3a7cc0e4c9e039ce7c7e74447a382a9">
    <g>
      <path d="M30.152,2.83L27.57,0.248C27.412,0.089,27.197,0,26.972,0l0,0c-0.225,0-0.439,0.089-0.598,0.248l-15.05,15.079
		c-0.082,0.082-0.146,0.179-0.188,0.286l-1.675,4.229c-0.124,0.313-0.05,0.669,0.187,0.908c0.162,0.163,0.378,0.249,0.6,0.249
		c0.103,0,0.208-0.019,0.308-0.058l4.243-1.661c0.108-0.043,0.208-0.107,0.29-0.189L30.152,4.025
		C30.482,3.695,30.482,3.16,30.152,2.83z M14.017,17.769l-2.268,0.888l0.895-2.26L26.973,2.042l1.386,1.386L14.017,17.769z"></path>
      <path d="M23.382,14.959c-0.747,0-1.353,0.606-1.353,1.353v12.982H4.306V4.973h13.592c0.747,0,1.353-0.606,1.353-1.353
		c0-0.747-0.606-1.353-1.353-1.353H2.953c-0.747,0-1.353,0.606-1.353,1.353v27.027C1.601,31.395,2.207,32,2.953,32h20.429
		c0.747,0,1.353-0.605,1.353-1.353V16.312C24.735,15.565,24.129,14.959,23.382,14.959z"></path>
    </g>
  </g>
  <g id="bubble-speech" data-iconmelon="Dripicons:1c063f9d8a3af7250ad84d37a9530548">
    <g>
      <path d="M30.59,2.145H1.409C0.631,2.145,0,2.776,0,3.554v17.655c0,0.778,0.631,1.41,1.409,1.41h16.46v5.827
		c0,0.591,0.368,1.119,0.923,1.323c0.159,0.059,0.323,0.086,0.486,0.086c0.405,0,0.801-0.175,1.073-0.496l5.741-6.741h4.497
		c0.779,0,1.41-0.631,1.41-1.41V3.554C32,2.776,31.369,2.145,30.59,2.145z M29.181,19.799h-3.739c-0.413,0-0.805,0.181-1.073,0.496
		l-3.68,4.321v-3.407c0-0.779-0.631-1.41-1.41-1.41H2.819V4.964h26.361V19.799z"></path>
      <path d="M7.884,11.269h10.06c0.779,0,1.41-0.631,1.41-1.41c0-0.779-0.631-1.41-1.41-1.41H7.884c-0.778,0-1.409,0.631-1.409,1.41
		C6.475,10.638,7.105,11.269,7.884,11.269z"></path>
      <path d="M22.728,11.268c0.37,0,0.736-0.148,0.997-0.413c0.265-0.261,0.416-0.624,0.416-0.998c0-0.37-0.151-0.733-0.416-0.997
		c-0.261-0.261-0.624-0.412-0.997-0.412c-0.37,0-0.733,0.151-0.994,0.412c-0.264,0.264-0.412,0.627-0.412,0.997
		c0,0.374,0.148,0.737,0.412,0.998C21.994,11.12,22.36,11.268,22.728,11.268z"></path>
    </g>
  </g>
  <g id="dialog" data-iconmelon="Dripicons:8c5b9d24afefa1220e5cabf56a5b8c20">
    <g>
      <path d="M30.799,8.798H16.635V5.047c0-0.498-0.403-0.9-0.9-0.9H0.9c-0.498,0-0.9,0.403-0.9,0.9v8.975c0,0.497,0.403,0.9,0.9,0.9
		h2.214l2.864,3.209c0.174,0.195,0.42,0.301,0.672,0.301c0.108,0,0.216-0.019,0.32-0.059c0.349-0.133,0.58-0.468,0.58-0.841v-2.61
		h2.524v6.888c0,0.663,0.538,1.201,1.201,1.201h10.755v3.642c0,0.503,0.313,0.953,0.786,1.127c0.135,0.05,0.275,0.074,0.414,0.074
		c0.346,0,0.682-0.149,0.914-0.422l3.765-4.42h2.89c0.663,0,1.201-0.538,1.201-1.201V9.999C32,9.335,31.462,8.798,30.799,8.798z
		 M6.65,13.122c-0.498,0-0.9,0.403-0.9,0.9v1.149l-1.56-1.749c-0.171-0.191-0.416-0.301-0.672-0.301H1.8V5.947h13.034v2.851h-3.559
		c-0.663,0-1.201,0.538-1.201,1.201v3.123H6.65z M29.599,20.61h-2.244c-0.352,0-0.686,0.154-0.914,0.422l-2.01,2.36v-1.582
		c0-0.663-0.537-1.2-1.2-1.2H12.476v-9.412h17.124V20.61z"></path>
      <path d="M15.607,15.117h6.731c0.497,0,0.9-0.403,0.9-0.9c0-0.498-0.403-0.9-0.9-0.9h-6.731c-0.498,0-0.9,0.403-0.9,0.9
		C14.707,14.713,15.11,15.117,15.607,15.117z"></path>
      <path d="M25.54,15.116c0.236,0,0.468-0.096,0.639-0.264c0.165-0.168,0.261-0.399,0.261-0.636c0-0.237-0.096-0.468-0.264-0.636
		c-0.333-0.336-0.937-0.336-1.272,0c-0.168,0.168-0.264,0.399-0.264,0.636c0,0.237,0.096,0.468,0.264,0.636
		S25.305,15.116,25.54,15.116z"></path>
    </g>
  </g>
  <g id="document" data-iconmelon="Dripicons:2106b50fd45d6610e50e5b7a9979f71f">
    <path d="M28.021,8.522l-8.114-8.094C19.633,0.154,19.26,0,18.871,0H5.015C4.205,0,3.547,0.657,3.547,1.468v29.064
	C3.547,31.343,4.205,32,5.015,32h21.97c0.811,0,1.468-0.657,1.468-1.468V9.562C28.453,9.172,28.297,8.798,28.021,8.522z
	 M25.489,10.144h-7.323V2.936h0.098L25.489,10.144z M6.483,29.064V2.936h8.747v8.676c0,0.811,0.657,1.468,1.468,1.468h8.819v15.985
	H6.483z"></path>
  </g>
  <g id="text-document" data-iconmelon="Dripicons:947c3d4f58377c60849912bcdfab430d">
    <g>
      <path d="M26.985,0H5.015C4.205,0,3.547,0.657,3.547,1.468v29.064C3.547,31.343,4.205,32,5.015,32h21.97
		c0.811,0,1.468-0.657,1.468-1.468V1.468C28.453,0.657,27.795,0,26.985,0z M25.517,29.064H6.483V2.936h19.033V29.064z"></path>
      <path d="M11.228,20.832h4.329c0.709,0,1.284-0.575,1.284-1.285c0-0.709-0.575-1.284-1.284-1.284h-4.329
		c-0.709,0-1.284,0.575-1.284,1.284C9.944,20.257,10.519,20.832,11.228,20.832z"></path>
      <path d="M11.432,15.067h8.716c0.709,0,1.284-0.575,1.284-1.284s-0.575-1.284-1.284-1.284h-8.716c-0.709,0-1.285,0.575-1.285,1.284
		S10.722,15.067,11.432,15.067z"></path>
      <path d="M11.432,9.302h8.716c0.709,0,1.284-0.575,1.284-1.285s-0.575-1.285-1.284-1.285h-8.716c-0.709,0-1.285,0.575-1.285,1.285
		S10.722,9.302,11.432,9.302z"></path>
      <path d="M19.191,18.641c-0.242,0.238-0.378,0.569-0.378,0.906s0.136,0.667,0.378,0.91c0.238,0.239,0.568,0.375,0.906,0.375
		c0.337,0,0.668-0.136,0.906-0.375c0.242-0.242,0.378-0.572,0.378-0.91s-0.136-0.668-0.378-0.906
		C20.523,18.16,19.668,18.163,19.191,18.641z"></path>
    </g>
  </g>
  <g id="move" data-iconmelon="Dripicons:85e511a3d5bc3529626c5eaf5204166c">
    <path d="M31.485,15.072l-4.867-4.866c-0.57-0.57-1.495-0.57-2.065,0c-0.569,0.57-0.569,1.495,0.001,2.064l2.374,2.374h-9.45V4.985
	l2.373,2.375c0.285,0.285,0.659,0.428,1.033,0.428c0.373,0,0.746-0.143,1.031-0.428c0.57-0.57,0.57-1.494,0.001-2.064L17.05,0.428
	C16.775,0.154,16.404,0,16.018,0c-0.388,0-0.759,0.154-1.032,0.428l-4.867,4.867c-0.57,0.57-0.57,1.495,0,2.064s1.495,0.57,2.064,0
	l2.375-2.375v9.66H5.072l2.374-2.374c0.57-0.57,0.57-1.494,0.001-2.064c-0.57-0.57-1.494-0.57-2.065,0l-4.867,4.866
	c-0.273,0.273-0.428,0.645-0.428,1.032s0.154,0.759,0.428,1.032l4.867,4.867c0.285,0.285,0.659,0.428,1.033,0.428
	c0.373,0,0.747-0.143,1.032-0.428c0.569-0.57,0.569-1.495-0.001-2.065l-2.374-2.374h9.485v9.452l-2.375-2.375
	c-0.569-0.57-1.494-0.57-2.064,0c-0.57,0.57-0.57,1.495,0,2.065l4.865,4.867C15.258,31.846,15.629,32,16.017,32
	c0.387,0,0.758-0.154,1.032-0.428l4.866-4.867c0.57-0.57,0.57-1.495,0-2.064c-0.57-0.57-1.494-0.57-2.064,0l-2.373,2.374v-9.451
	h9.451l-2.375,2.374c-0.57,0.57-0.57,1.495-0.001,2.065c0.285,0.285,0.659,0.428,1.033,0.428c0.373,0,0.747-0.143,1.032-0.428
	l4.867-4.866c0.273-0.274,0.428-0.645,0.428-1.032S31.759,15.346,31.485,15.072z"></path>
  </g>
  <g id="search" data-iconmelon="Dripicons:65597b40f7a205ad17dccae2acaef59f">
    <g>
      <path d="M20.401,0C14.096,0,8.966,5.13,8.966,11.436c0,2.592,0.868,4.984,2.327,6.904L0.687,28.947
		c-0.699,0.698-0.699,1.831,0,2.529C1.035,31.826,1.493,32,1.951,32s0.916-0.174,1.265-0.524l10.658-10.658
		c1.853,1.292,4.103,2.054,6.527,2.054c6.307,0,11.437-5.13,11.437-11.437C31.838,5.13,26.708,0,20.401,0z M20.401,19.692
		c-4.552,0-8.256-3.704-8.256-8.256c0-4.552,3.704-8.255,8.256-8.255c4.553,0,8.256,3.704,8.256,8.255
		C28.657,15.988,24.954,19.692,20.401,19.692z"></path>
      <path d="M22.75,5.743c-0.798-0.349-1.727,0.013-2.083,0.812c-0.356,0.797,0.004,1.735,0.799,2.098
		c0.081,0.037,1.982,0.923,1.765,2.536c-0.118,0.87,0.492,1.671,1.362,1.789c0.072,0.01,0.144,0.015,0.215,0.015
		c0.783,0,1.466-0.58,1.574-1.377C26.813,8.422,24.302,6.422,22.75,5.743z"></path>
      <path d="M22.366,13.731c-0.421,0-0.83,0.171-1.125,0.469c-0.298,0.294-0.465,0.704-0.465,1.121c0,0.421,0.167,0.831,0.465,1.125
		c0.295,0.298,0.704,0.465,1.125,0.465c0.418,0,0.827-0.167,1.121-0.465c0.299-0.294,0.47-0.708,0.47-1.125
		c0-0.417-0.171-0.827-0.47-1.121C23.193,13.902,22.784,13.731,22.366,13.731z"></path>
    </g>
  </g>
  <g id="close" data-iconmelon="Dripicons:a90a125aac36898af371263fa7677df1">
    <path d="M20.351,16L31.099,5.253c1.202-1.202,1.202-3.15,0-4.352c-1.201-1.202-3.15-1.202-4.351,0L16,11.649L5.252,0.901
	c-1.201-1.202-3.15-1.202-4.351,0c-1.202,1.202-1.202,3.15,0,4.352L11.649,16L0.901,26.748c-1.202,1.202-1.202,3.15,0,4.351
	C1.502,31.7,2.29,32,3.077,32c0.787,0,1.575-0.3,2.175-0.901L16,20.351l10.748,10.748C27.348,31.7,28.136,32,28.923,32
	c0.788,0,1.575-0.3,2.176-0.901c1.202-1.201,1.202-3.149,0-4.351L20.351,16z"></path>
  </g>
  <g id="minus" data-iconmelon="Dripicons:3aa72bfa42e48a48df6ca7df3aca4005">
    <g>
      <path d="M29.054,18.946H2.946C1.319,18.946,0,17.627,0,16s1.319-2.946,2.946-2.946h26.107C30.681,13.054,32,14.373,32,16
		S30.681,18.946,29.054,18.946z"></path>
    </g>
  </g>
  <g id="map" data-iconmelon="Dripicons:d18e9f73ac36e537ee8d153f2c9f3fc0">
    <path d="M31.274,5.428L23.897,2.03c-0.021-0.01-0.045-0.013-0.067-0.021c-0.05-0.02-0.1-0.035-0.15-0.048
	c-0.05-0.013-0.101-0.023-0.151-0.029s-0.101-0.008-0.151-0.008c-0.053,0-0.104,0.002-0.155,0.008
	c-0.051,0.006-0.099,0.017-0.147,0.029c-0.053,0.013-0.103,0.028-0.153,0.048c-0.021,0.009-0.045,0.011-0.066,0.021L16,5.188
	L9.146,2.03c-0.021-0.01-0.045-0.012-0.066-0.021c-0.051-0.02-0.102-0.035-0.154-0.048C8.877,1.949,8.829,1.938,8.779,1.933
	C8.727,1.926,8.676,1.924,8.622,1.924c-0.051,0-0.101,0.002-0.15,0.008c-0.051,0.006-0.101,0.017-0.15,0.029
	C8.27,1.974,8.22,1.99,8.169,2.009C8.147,2.018,8.124,2.021,8.103,2.03L0.726,5.428C0.283,5.632,0,6.074,0,6.561v22.268
	c0,0.425,0.217,0.821,0.574,1.05c0.204,0.13,0.438,0.197,0.673,0.197c0.178,0,0.355-0.038,0.521-0.114l6.855-3.157l6.854,3.157
	c0.001,0,0.002,0,0.003,0.001c0.073,0.034,0.15,0.058,0.228,0.076c0.019,0.004,0.037,0.008,0.056,0.012
	c0.078,0.015,0.156,0.025,0.236,0.025c0.079,0,0.157-0.01,0.235-0.025c0.02-0.003,0.037-0.007,0.056-0.012
	c0.077-0.019,0.154-0.042,0.228-0.076c0.001,0,0.002,0,0.003-0.001l6.854-3.157l6.855,3.157c0.166,0.077,0.344,0.114,0.521,0.114
	c0.234,0,0.469-0.066,0.673-0.197C31.783,29.65,32,29.254,32,28.829V6.561C32,6.074,31.717,5.632,31.274,5.428z M14.753,26.881
	l-4.882-2.249V5.111l4.882,2.249V26.881z M2.494,7.36l4.883-2.249v19.522l-4.883,2.249V7.36z M17.247,7.36l4.882-2.249v19.521
	l-4.882,2.249V7.36z M29.506,26.881l-4.883-2.249V5.111l4.883,2.249V26.881z"></path>
  </g>
  <g id="plus" data-iconmelon="Dripicons:787a2e564e2ca8f388257e13abd7e8e4">
    <path d="M29.241,13.241H18.759V2.759C18.759,1.235,17.523,0,16,0s-2.759,1.235-2.759,2.759v10.482H2.759C1.235,13.241,0,14.477,0,16
	s1.235,2.759,2.759,2.759h10.482v10.482C13.241,30.765,14.477,32,16,32s2.759-1.235,2.759-2.759V18.759h10.482
	C30.765,18.759,32,17.523,32,16S30.765,13.241,29.241,13.241z"></path>
  </g>
  <g id="check" data-iconmelon="Dripicons:356ed24a6aa346c517629a7d2d1e6d34">
    <path d="M10.9,27.603c-0.539,0-1.078-0.206-1.489-0.616l-8.794-8.794c-0.822-0.822-0.822-2.155,0-2.978
	c0.822-0.822,2.156-0.822,2.978,0L10.9,22.52L28.406,5.014c0.822-0.822,2.155-0.822,2.977,0c0.822,0.822,0.822,2.155,0,2.977
	L12.388,26.986C11.977,27.397,11.438,27.603,10.9,27.603z"></path>
  </g>
  <g id="geotag" data-iconmelon="Dripicons:2ec9c396c9293a018250523526b7718b">
    <g>
      <path d="M16,0C10.592,0,4.276,3.196,4.276,12.204c0,8.731,10.213,18.924,10.647,19.354C15.223,31.853,15.611,32,16,32
		s0.777-0.147,1.076-0.442c0.435-0.43,10.647-10.623,10.647-19.354C27.724,3.196,21.408,0,16,0z M15.999,28.244
		c-2.534-2.772-8.66-10.088-8.66-16.04c0-8.482,6.629-9.142,8.661-9.142s8.661,0.66,8.661,9.142
		C24.661,18.146,18.533,25.47,15.999,28.244z"></path>
      <path d="M16,5.615c-3.337,0-6.053,2.715-6.053,6.053c0,3.338,2.716,6.053,6.053,6.053c3.338,0,6.054-2.715,6.054-6.053
		C22.054,8.331,19.338,5.615,16,5.615z M16,15.425c-2.07,0-3.756-1.686-3.756-3.757S13.93,7.912,16,7.912
		c2.071,0,3.757,1.685,3.757,3.756S18.071,15.425,16,15.425z"></path>
    </g>
  </g>
  <g id="direction" data-iconmelon="Dripicons:012682a271d5b81be7f473d07a41df90">
    <path d="M17.473,32c-0.081,0-0.163-0.007-0.245-0.02c-0.685-0.11-1.209-0.667-1.279-1.356l-1.345-13.227L1.376,16.051
	c-0.689-0.07-1.245-0.595-1.356-1.279c-0.11-0.684,0.252-1.357,0.885-1.641L29.842,0.134c0.579-0.26,1.26-0.135,1.71,0.314
	c0.449,0.449,0.574,1.13,0.313,1.71L18.868,31.096C18.618,31.652,18.067,32,17.473,32z M7.372,13.583l8.783,0.893
	c0.723,0.074,1.295,0.646,1.368,1.369l0.894,8.782l9.005-20.049L7.372,13.583z"></path>
  </g>
  <g id="arrows" data-iconmelon="Dripicons:97e44609fa0a56f6350afbaf37a15a37">
    <g>
      <path d="M20.903,27.096c-0.441,0-0.884-0.168-1.221-0.505c-0.674-0.674-0.674-1.767,0-2.441L27.833,16l-8.15-8.149
		c-0.674-0.674-0.674-1.767,0-2.441c0.674-0.674,1.767-0.674,2.441,0l9.37,9.37C31.818,15.103,32,15.542,32,16
		s-0.182,0.897-0.506,1.22l-9.37,9.37C21.787,26.927,21.345,27.096,20.903,27.096z"></path>
      <path d="M11.097,27.096c-0.441,0-0.884-0.168-1.221-0.505l-9.37-9.37C0.182,16.897,0,16.458,0,16s0.182-0.897,0.506-1.221
		l9.37-9.37c0.674-0.674,1.768-0.674,2.44,0c0.675,0.674,0.675,1.767,0,2.441L4.167,16l8.149,8.149c0.675,0.674,0.675,1.767,0,2.441
		C11.98,26.927,11.538,27.096,11.097,27.096z"></path>
    </g>
  </g>
  <g id="arrow-left" data-iconmelon="Dripicons:1343443effeb28db6f9ad48fdc372632">
    <path d="M30.096,14.096H6.501l7.086-7.086c0.744-0.744,0.744-1.949,0-2.692c-0.743-0.744-1.949-0.744-2.692,0L0.558,14.654
	C0.201,15.011,0,15.495,0,16s0.201,0.989,0.558,1.346l10.337,10.336c0.372,0.372,0.859,0.558,1.347,0.558
	c0.486,0,0.975-0.186,1.346-0.558c0.744-0.743,0.744-1.949,0-2.692l-7.086-7.086h23.595C31.147,17.904,32,17.052,32,16
	C32,14.949,31.147,14.096,30.096,14.096z"></path>
  </g>
  <g id="arrow-right" data-iconmelon="Dripicons:5b0d13da0972976899a181ad15de3560">
    <path d="M31.442,14.654L21.105,4.317c-0.744-0.743-1.949-0.743-2.692,0c-0.744,0.743-0.744,1.949,0,2.692l7.086,7.086H1.904
	C0.853,14.096,0,14.949,0,16c0,1.052,0.853,1.904,1.904,1.904h23.595l-7.086,7.086c-0.744,0.744-0.744,1.949,0,2.692
	c0.371,0.372,0.859,0.558,1.346,0.558c0.487,0,0.975-0.186,1.347-0.558l10.337-10.336C31.799,16.989,32,16.505,32,16
	S31.799,15.011,31.442,14.654z"></path>
  </g>
  <g id="reply" data-iconmelon="Dripicons:5a43f0321621460e7c4c9a0025766a3c">
    <g>
      <path d="M15.387,25.535c0.329,0.329,0.826,0.428,1.255,0.25c0.43-0.178,0.711-0.598,0.711-1.063v-4.007
		c0.289-0.011,0.631-0.02,1.012-0.02c3.308,0,9.198,0.598,11.484,4.599c0.208,0.365,0.594,0.58,1,0.58
		c0.097,0,0.196-0.012,0.293-0.038c0.504-0.133,0.856-0.588,0.858-1.109c0.001-0.218-0.025-5.384-3.928-9.302
		c-2.571-2.581-6.173-3.986-10.719-4.187V7.279c0-0.466-0.281-0.885-0.711-1.063c-0.43-0.179-0.926-0.08-1.255,0.25l-8.721,8.721
		c-0.388,0.388-0.448,0.997-0.143,1.454c0.046,0.068,0.098,0.13,0.155,0.186C7.026,17.175,15.387,25.535,15.387,25.535z M9.108,16
		l5.942-5.941v2.305c0,0.636,0.515,1.151,1.151,1.151c8.409,0,11.579,4.282,12.774,7.556c-3.294-2.267-7.782-2.68-10.61-2.68
		c-1.357,0-2.252,0.097-2.289,0.101c-0.584,0.064-1.026,0.557-1.026,1.145v2.305L9.108,16z"></path>
      <path d="M2.775,16L2.775,16L2.775,16l7.907-7.907c0.45-0.45,0.45-1.179,0-1.628c-0.449-0.45-1.179-0.45-1.628,0l-8.721,8.721
		C0.111,15.408,0,15.703,0,16c0,0.297,0.111,0.592,0.333,0.814l8.721,8.721c0.45,0.449,1.179,0.449,1.628,0
		c0.45-0.45,0.45-1.179,0-1.628L2.775,16z"></path>
    </g>
  </g>
  <g id="share" data-iconmelon="Dripicons:14fcddebb0ace5eb3e9cc5116749a726">
    <path d="M1.435,28.306c-0.121,0-0.244-0.015-0.366-0.047C0.441,28.093,0.002,27.526,0,26.876c-0.001-0.272,0.031-6.71,4.896-11.595
	c3.205-3.217,7.695-4.969,13.362-5.219V5.129c0-0.581,0.35-1.104,0.886-1.326c0.536-0.222,1.154-0.1,1.564,0.311L31.58,14.985
	c0.484,0.484,0.559,1.243,0.178,1.812c-0.057,0.085-0.122,0.163-0.193,0.232c-0.435,0.435-10.856,10.856-10.856,10.856
	c-0.411,0.411-1.029,0.533-1.564,0.311c-0.537-0.222-0.886-0.746-0.886-1.326v-4.995c-0.36-0.014-0.786-0.025-1.262-0.025
	c-4.124,0-11.466,0.745-14.315,5.732C2.421,28.038,1.941,28.306,1.435,28.306z M16.997,18.981c1.691,0,2.807,0.12,2.853,0.125
	c0.728,0.08,1.279,0.695,1.279,1.427v2.874L28.535,16l-7.406-7.406v2.874c0,0.792-0.643,1.435-1.436,1.435
	c-10.482,0-14.434,5.338-15.923,9.419C7.877,19.496,13.471,18.981,16.997,18.981z"></path>
  </g>
  <g id="forward" data-iconmelon="Dripicons:028d03d2f5327325ef71c5a960ce6d05">
    <path d="M30.565,28.306c-0.506,0-0.986-0.269-1.246-0.723c-2.85-4.987-10.192-5.732-14.315-5.732c-0.476,0-0.901,0.01-1.262,0.025
	v4.995c0,0.581-0.35,1.104-0.886,1.326c-0.536,0.222-1.154,0.099-1.564-0.311c0,0-10.416-10.416-10.855-10.855
	c-0.072-0.069-0.137-0.147-0.194-0.232c-0.38-0.57-0.306-1.329,0.178-1.813L11.292,4.114c0.41-0.411,1.028-0.534,1.564-0.311
	c0.537,0.222,0.886,0.745,0.886,1.326v4.934c5.667,0.25,10.157,2.002,13.362,5.219c4.866,4.884,4.897,11.323,4.896,11.594
	c-0.002,0.65-0.441,1.217-1.069,1.383C30.809,28.291,30.686,28.306,30.565,28.306z M3.465,16l7.406,7.406v-2.873
	c0-0.732,0.551-1.347,1.279-1.427c0.047-0.005,1.162-0.125,2.854-0.125c3.525,0,9.12,0.515,13.226,3.34
	c-1.49-4.081-5.441-9.418-15.923-9.418c-0.792,0-1.435-0.643-1.435-1.435V8.594L3.465,16z"></path>
  </g>
  <g id="arrow-right-2" data-iconmelon="Dripicons:7df148ac1fd31c906e9e3e2add0426af">
    <path d="M18.151,29.849c-0.208,0-0.418-0.04-0.618-0.123c-0.604-0.25-0.997-0.839-0.997-1.492v-5.518H1.615
	C0.723,22.716,0,21.993,0,21.101V10.899c0-0.892,0.723-1.615,1.615-1.615h14.921V3.767c0-0.653,0.394-1.242,0.997-1.492
	c0.604-0.25,1.299-0.111,1.76,0.35l12.234,12.233c0.545,0.545,0.629,1.399,0.2,2.04c-0.064,0.096-0.138,0.183-0.218,0.261
	c-0.489,0.489-12.217,12.216-12.217,12.216C18.984,29.685,18.571,29.849,18.151,29.849z M3.23,19.486h14.921
	c0.892,0,1.615,0.723,1.615,1.615v3.233L28.101,16l-8.334-8.334v3.233c0,0.892-0.724,1.615-1.615,1.615H3.23V19.486z"></path>
  </g>
  <g id="arrow-left-2" data-iconmelon="Dripicons:5be421a56735fa9e9182f86d492df63f">
    <path d="M13.849,29.849c-0.42,0-0.833-0.164-1.142-0.473c0,0-11.722-11.721-12.217-12.216c-0.08-0.078-0.153-0.166-0.218-0.262
	c-0.428-0.641-0.344-1.495,0.201-2.04L12.707,2.625c0.461-0.462,1.157-0.6,1.76-0.35c0.604,0.25,0.997,0.839,0.997,1.492v5.518
	h14.921c0.892,0,1.615,0.723,1.615,1.615v10.202c0,0.892-0.723,1.615-1.615,1.615H15.464v5.518c0,0.653-0.394,1.242-0.997,1.492
	C14.267,29.809,14.057,29.849,13.849,29.849z M3.899,16l8.334,8.334v-3.233c0-0.892,0.723-1.615,1.615-1.615H28.77v-6.971H13.849
	c-0.892,0-1.615-0.724-1.615-1.615V7.666L3.899,16z"></path>
  </g>
  <g id="share-2" data-iconmelon="Dripicons:63ada4e79c84ab2b4fa85e04214dc68e">
    <g>
      <path d="M23.992,24.544c-0.662,0-1.199,0.537-1.199,1.199v1.219H2.398V12.372h3.236c0.662,0,1.199-0.537,1.199-1.199
		c0-0.663-0.537-1.199-1.199-1.199H1.199C0.537,9.973,0,10.51,0,11.172v16.989c0,0.662,0.537,1.199,1.199,1.199h22.793
		c0.662,0,1.199-0.537,1.199-1.199v-2.418C25.191,25.081,24.654,24.544,23.992,24.544z"></path>
      <path d="M31.648,11.783L22.855,2.99c-0.343-0.343-0.857-0.446-1.307-0.26c-0.448,0.186-0.74,0.623-0.74,1.108v3.954
		c-4.577,0.208-8.205,1.629-10.797,4.231c-3.946,3.961-3.972,9.185-3.971,9.405c0.002,0.543,0.369,1.017,0.894,1.155
		c0.102,0.027,0.204,0.04,0.306,0.04c0.422,0,0.824-0.225,1.041-0.604c2.295-4.017,8.219-4.617,11.546-4.617
		c0.368,0,0.699,0.007,0.982,0.019v4.003c0,0.485,0.292,0.922,0.74,1.108c0.449,0.186,0.964,0.083,1.307-0.26l8.793-8.793
		C31.873,13.254,32,12.949,32,12.631S31.873,12.008,31.648,11.783z M23.207,18.529v-2.232c0-0.611-0.461-1.125-1.068-1.192
		c-0.038-0.004-0.942-0.102-2.312-0.102c-2.823,0-7.283,0.408-10.601,2.628c0.479-1.268,1.248-2.674,2.485-3.916
		c2.348-2.357,5.812-3.552,10.297-3.552c0.662,0,1.199-0.537,1.199-1.199V6.733l5.897,5.898L23.207,18.529z"></path>
    </g>
  </g>
  <g id="rotate" data-iconmelon="Dripicons:23a002a892167e244c37acd581fc0eab">
    <path d="M31.558,12.298c-0.589-0.589-1.545-0.589-2.135,0l-2.435,2.435C26.347,7.868,20.555,2.475,13.525,2.475
	C6.067,2.475,0,8.542,0,16s6.067,13.525,13.525,13.525c2.75,0,5.396-0.82,7.653-2.372c0.687-0.472,0.861-1.412,0.389-2.099
	s-1.412-0.861-2.099-0.389c-1.751,1.204-3.807,1.84-5.942,1.84C7.732,26.506,3.019,21.793,3.019,16S7.732,5.494,13.525,5.494
	c5.551,0,10.106,4.328,10.478,9.787l-2.982-2.982c-0.59-0.59-1.545-0.59-2.135,0c-0.59,0.59-0.59,1.545,0,2.135l5.269,5.27
	c0.284,0.283,0.667,0.442,1.068,0.442c0.4,0,0.784-0.159,1.067-0.442l5.269-5.27C32.147,13.843,32.147,12.888,31.558,12.298z"></path>
  </g>
  <g id="repeat-one" data-iconmelon="Dripicons:0a080f320b0fc89e5281e8a2eee266ae">
    <path d="M30.206,7.534h-6.074c-0.99,0-1.793,0.803-1.793,1.793c0,0.99,0.803,1.793,1.793,1.793h4.281v15.735H3.587V11.121h9.479
	l-2.919,2.919c-0.701,0.7-0.701,1.836,0,2.536c0.35,0.35,0.809,0.525,1.268,0.525s0.918-0.175,1.269-0.525l5.979-5.979
	c0.336-0.336,0.525-0.792,0.525-1.268s-0.189-0.932-0.525-1.269l-5.979-5.979c-0.701-0.701-1.836-0.7-2.536,0
	c-0.701,0.701-0.701,1.836,0,2.536l2.915,2.916H1.793C0.803,7.534,0,8.336,0,9.327v19.322c0,0.991,0.803,1.793,1.793,1.793h28.413
	c0.991,0,1.794-0.803,1.794-1.793V9.327C32,8.336,31.197,7.534,30.206,7.534z"></path>
  </g>
  <g id="repeat-all" data-iconmelon="Dripicons:441c6e2602c072e323d943ca2a4a37da">
    <g>
      <path d="M31.589,17.653c-0.548-0.548-1.437-0.548-1.985,0l-1.968,1.968V8.99c0-0.775-0.628-1.404-1.403-1.404h-13.74
		c-0.775,0-1.403,0.628-1.403,1.404c0,0.775,0.628,1.403,1.403,1.403h12.336v9.228l-1.968-1.968c-0.548-0.548-1.437-0.548-1.985,0
		c-0.548,0.548-0.548,1.437,0,1.985l4.364,4.365c0.264,0.263,0.621,0.411,0.993,0.411s0.729-0.148,0.993-0.411l4.364-4.365
		C32.137,19.09,32.137,18.201,31.589,17.653z"></path>
      <path d="M19.507,21.607H7.171v-9.228l1.968,1.968c0.274,0.274,0.634,0.411,0.993,0.411c0.359,0,0.718-0.137,0.992-0.411
		c0.548-0.548,0.548-1.437,0-1.985L6.76,7.998C6.497,7.734,6.14,7.586,5.768,7.586c-0.373,0-0.729,0.148-0.993,0.411l-4.364,4.365
		c-0.548,0.548-0.548,1.437,0,1.985s1.437,0.548,1.985,0l1.968-1.968V23.01c0,0.775,0.628,1.404,1.404,1.404h13.739
		c0.775,0,1.404-0.628,1.404-1.404C20.911,22.235,20.282,21.607,19.507,21.607z"></path>
    </g>
  </g>
  <g id="return" data-iconmelon="Dripicons:319fc9d1a2bc0a41ff2a56c4fdd5d1c7">
    <path d="M30.333,8.134H5.69l2.711-2.711c0.651-0.651,0.651-1.706,0.001-2.357c-0.651-0.651-1.706-0.651-2.357,0L0.488,8.622
	C0.176,8.935,0,9.358,0,9.8s0.176,0.866,0.488,1.179l5.557,5.556c0.325,0.325,0.752,0.488,1.179,0.488
	c0.426,0,0.854-0.163,1.179-0.488c0.65-0.651,0.65-1.706-0.001-2.357L5.69,11.467h22.977v14.622H3.93
	c-0.92,0-1.666,0.746-1.666,1.667c0,0.92,0.746,1.667,1.666,1.667h26.403c0.921,0,1.667-0.746,1.667-1.667V9.8
	C32,8.88,31.254,8.134,30.333,8.134z"></path>
  </g>
  <g id="shuffle" data-iconmelon="Dripicons:d63a5fbc3da03dd567292a8c1f3bde4d">
    <g>
      <path d="M27.04,9.691l-2.362,2.363c-0.567,0.567-0.567,1.487-0.001,2.054c0.284,0.284,0.656,0.426,1.027,0.426
		c0.372,0,0.743-0.142,1.027-0.426l4.843-4.842C31.847,8.994,32,8.624,32,8.239c0-0.385-0.153-0.754-0.426-1.027L26.731,2.37
		c-0.567-0.567-1.487-0.567-2.055,0c-0.566,0.567-0.566,1.487,0.001,2.054l2.362,2.363h-2.323c-2.879,0-6.597,3.6-10.9,7.768
		c-3.567,3.455-8.008,7.754-10.238,7.754H1.452C0.65,22.308,0,22.958,0,23.761s0.65,1.453,1.452,1.453h2.126
		c3.407,0,7.707-4.164,12.259-8.572c3.198-3.096,7.177-6.95,8.88-6.95H27.04z"></path>
      <path d="M26.731,17.891c-0.567-0.567-1.487-0.567-2.055,0c-0.566,0.567-0.566,1.487,0.001,2.054l2.362,2.363h-2.323
		c-1.398,0-3.66-2.009-5.67-3.892c-0.585-0.548-1.504-0.518-2.053,0.067s-0.519,1.504,0.066,2.053
		c3.237,3.033,5.416,4.677,7.656,4.677h2.323l-2.362,2.363c-0.567,0.567-0.567,1.487-0.001,2.054
		c0.284,0.284,0.656,0.425,1.027,0.425c0.372,0,0.743-0.142,1.027-0.425l4.843-4.842C31.847,24.516,32,24.146,32,23.761
		s-0.153-0.755-0.426-1.027L26.731,17.891z"></path>
      <path d="M1.452,9.691h2.126c1.697,0,4.192,2.071,6.175,3.875c0.278,0.253,0.629,0.378,0.978,0.378c0.395,0,0.788-0.16,1.074-0.475
		c0.54-0.594,0.497-1.512-0.097-2.052c-3.056-2.78-5.607-4.631-8.13-4.631H1.452C0.65,6.787,0,7.437,0,8.239
		C0,9.041,0.65,9.691,1.452,9.691z"></path>
    </g>
  </g>
  <g id="music" data-iconmelon="Dripicons:c68be21a8ba7a95b8959cac61297c467">
    <path d="M31.812,1.42c0.003-0.427-0.188-0.833-0.519-1.104c-0.331-0.27-0.767-0.375-1.185-0.286l-18.54,3.962
	c-0.646,0.138-1.11,0.707-1.115,1.368l-0.128,16.603c-1.033-0.615-2.284-0.981-3.635-0.992h-0.06c-3.53,0-6.42,2.452-6.443,5.465
	C0.165,29.477,3.044,31.972,6.606,32h0.059c3.531,0,6.421-2.451,6.445-5.464v0l0,0l0.111-14.472l15.716-3.359l-0.072,9.297
	c-1.033-0.615-2.284-0.981-3.635-0.991l-0.06,0c-3.53,0-6.42,2.452-6.444,5.465c-0.023,3.04,2.856,5.536,6.419,5.563l0.059,0
	c3.255,0,5.961-2.086,6.383-4.773c0.034-0.12,0.059-0.245,0.06-0.375L31.812,1.42z M6.666,29.181H6.628
	c-1.974-0.016-3.631-1.262-3.621-2.722c0.011-1.471,1.637-2.667,3.624-2.667h0.038c1.974,0.015,3.633,1.262,3.622,2.723
	C10.28,27.984,8.653,29.181,6.666,29.181z M13.238,9.897l0.026-3.384L28.98,3.155l-0.026,3.384L13.238,9.897z M25.205,25.219
	l-0.037,0c-1.974-0.015-3.632-1.262-3.622-2.723c0.011-1.47,1.637-2.667,3.625-2.667l0.038,0c1.975,0.015,3.633,1.262,3.622,2.722
	C28.82,24.022,27.193,25.219,25.205,25.219z"></path>
  </g>
  <g id="mute" data-iconmelon="Dripicons:1dcf9511adf1b0f1c1d674e606f21a1a">
    <path d="M29.974,1.132c-0.573-0.573-1.503-0.573-2.076,0l-5.124,5.125V1.468c0-0.594-0.357-1.129-0.906-1.356
	c-0.549-0.228-1.181-0.102-1.6,0.318L12.68,8.017H8.906c-0.811,0-1.468,0.657-1.468,1.468v12.107l-5.411,5.412
	c-0.573,0.573-0.573,1.502,0,2.076c0.286,0.286,0.662,0.43,1.038,0.43s0.751-0.144,1.038-0.43l5.097-5.097h3.481l7.588,7.587
	c0.28,0.281,0.656,0.43,1.038,0.43c0.189,0,0.38-0.037,0.562-0.112c0.549-0.228,0.906-0.763,0.906-1.356V10.408l7.2-7.2
	C30.547,2.634,30.547,1.705,29.974,1.132z M10.374,10.953h2.915c0.389,0,0.763-0.155,1.038-0.43l5.512-5.511v4.18l-9.464,9.464
	V10.953z M19.838,26.988l-5.512-5.512c-0.275-0.275-0.649-0.43-1.038-0.43h-1.153l7.703-7.703V26.988z"></path>
  </g>
  <g id="microphone" data-iconmelon="Dripicons:aa8090e2ec259929a3f57f8cc9ebcf93">
    <g>
      <path d="M13.82,21.421l4.273,0.033c0.003,0,0.015,0,0.018,0c1.528,0,3.039-1.497,3.05-3.021L21.279,3.1
		c0.011-1.507-1.514-3.056-3.021-3.068L13.967,0c-1.528,0-3.038,1.496-3.05,3.021L10.8,18.353c-0.006,0.724,0.335,1.49,0.936,2.1
		S13.096,21.416,13.82,21.421z M13.448,3.059c0.031-0.174,0.362-0.5,0.518-0.527l4.253,0.032c0.174,0.031,0.5,0.362,0.528,0.518
		L18.63,18.394c-0.031,0.172-0.355,0.493-0.531,0.528l-4.24-0.032c-0.174-0.031-0.5-0.362-0.527-0.518L13.448,3.059z"></path>
      <path d="M22.606,29.784l-5.605-0.043l0.024-3.127c0.004-0.612-0.487-1.111-1.1-1.116c-0.002,0-0.005,0-0.009,0
		c-0.607,0-1.103,0.49-1.107,1.1l-0.024,3.126L9.18,29.681c-0.002,0-0.005,0-0.008,0c-0.608,0-1.103,0.49-1.108,1.099
		c-0.004,0.612,0.488,1.112,1.1,1.117l6.713,0.051l0,0l0,0L22.589,32c0.003,0,0.006,0,0.009,0c0.608,0,1.103-0.491,1.107-1.1
		C23.71,30.289,23.218,29.789,22.606,29.784z"></path>
      <path d="M23.633,10.079c-0.002,0-0.005,0-0.008,0c-0.608,0-1.103,0.491-1.108,1.1l-0.072,9.43c-0.004,0.546-0.221,1.059-0.61,1.442
		c-0.39,0.383-0.903,0.59-1.451,0.588l-8.871-0.068c-0.546-0.004-1.059-0.221-1.442-0.61c-0.383-0.389-0.592-0.905-0.588-1.451
		l0.072-9.43c0.004-0.612-0.488-1.112-1.1-1.116c-0.003,0-0.005,0-0.009,0c-0.607,0-1.103,0.49-1.107,1.099l-0.072,9.43
		c-0.009,1.138,0.426,2.212,1.225,3.023c0.799,0.811,1.866,1.263,3.004,1.271l8.871,0.068c0.011,0,0.022,0,0.034,0
		c1.125,0,2.186-0.434,2.989-1.225c0.811-0.799,1.263-1.866,1.271-3.004l0.072-9.43C24.737,10.583,24.246,10.083,23.633,10.079z"></path>
    </g>
  </g>
  <g id="loud" data-iconmelon="Dripicons:2ffcf1c7463f4b62d491dd23a09dfe55">
    <g>
      <path d="M13.124,1.55c-0.499-0.207-1.073-0.093-1.455,0.29L4.768,8.74H1.335C0.598,8.74,0,9.338,0,10.075v11.85
		c0,0.737,0.598,1.335,1.335,1.335h3.433l6.901,6.9c0.255,0.256,0.597,0.391,0.944,0.391c0.171,0,0.345-0.033,0.51-0.102
		c0.499-0.207,0.824-0.693,0.824-1.233V2.783C13.948,2.243,13.623,1.756,13.124,1.55z M11.278,25.994l-5.013-5.013
		c-0.25-0.25-0.59-0.391-0.944-0.391H2.67v-9.18h2.651c0.354,0,0.693-0.141,0.944-0.391l5.013-5.013V25.994z"></path>
      <path d="M18.462,10.146c-0.493-0.549-1.337-0.594-1.885-0.102c-0.548,0.493-0.594,1.336-0.102,1.885
		c0.149,0.167,3.612,4.117,0,8.141c-0.492,0.549-0.447,1.393,0.102,1.885c0.255,0.229,0.574,0.342,0.892,0.342
		c0.366,0,0.73-0.15,0.994-0.443C22.618,17.224,20.28,12.171,18.462,10.146z"></path>
      <path d="M22.682,6.424c-0.493-0.549-1.337-0.594-1.885-0.102c-0.549,0.493-0.594,1.337-0.102,1.886
		c0.285,0.318,6.914,7.881,0,15.585c-0.493,0.548-0.447,1.393,0.102,1.885c0.255,0.229,0.574,0.341,0.891,0.341
		c0.366,0,0.73-0.149,0.994-0.443C31.178,16.11,22.768,6.52,22.682,6.424z"></path>
      <path d="M31.235,11.316c-1.357-4.536-4.033-7.553-4.146-7.679c-0.493-0.549-1.337-0.594-1.886-0.102
		c-0.548,0.493-0.594,1.337-0.102,1.885c0.024,0.027,2.388,2.691,3.575,6.661c1.566,5.233,0.363,10.111-3.575,14.5
		c-0.492,0.548-0.447,1.393,0.102,1.885c0.255,0.229,0.574,0.341,0.892,0.341c0.366,0,0.73-0.149,0.994-0.443
		C32.82,21.978,32.507,15.568,31.235,11.316z"></path>
    </g>
  </g>
  <g id="headphones" data-iconmelon="Dripicons:974d423ad8ba74d3661e43d1e1b42545">
    <g>
      <path d="M26.574,4.414C23.801,1.598,20.098,0.031,16.147,0C8-0.073,1.304,6.523,1.242,14.68l-0.068,8.839
		c-0.005,0.724,0.577,1.315,1.301,1.321c0.003,0,0.007,0,0.01,0c0.719,0,1.306-0.581,1.311-1.301L3.864,14.7
		C3.916,8.021,9.365,2.623,16.032,2.623c0.032,0,0.063,0,0.095,0c3.25,0.025,6.297,1.314,8.578,3.63
		c2.281,2.316,3.523,5.382,3.499,8.632l-0.068,8.839c-0.005,0.725,0.578,1.316,1.302,1.321c0.003,0,0.006,0,0.01,0
		c0.719,0,1.305-0.581,1.311-1.301l0.067-8.839C30.856,10.956,29.347,7.229,26.574,4.414z"></path>
      <path d="M20.766,15c-0.003,0-0.005,0-0.009,0c-0.629,0-1.142,0.508-1.147,1.139l-0.113,14.705
		c-0.004,0.634,0.505,1.151,1.139,1.156l0.087,0l0,0c4.544,0,5.767-2.826,5.778-4.319l0.063-8.271
		c0.001-0.121-0.013-1.209-0.788-2.29C25.093,16.165,23.668,15.022,20.766,15z M24.206,27.643c-0.014,0.301-0.201,1.653-2.405,1.988
		l0.094-12.243c2.197,0.368,2.365,1.72,2.374,2.005L24.206,27.643z"></path>
      <path d="M11.555,14.93l-0.086,0c-4.545,0-5.768,2.826-5.779,4.32l-0.063,8.271c-0.001,0.121,0.013,1.209,0.788,2.29
		c0.684,0.954,2.108,2.096,5.011,2.119c0.002,0,0.005,0,0.009,0c0.629,0,1.142-0.508,1.147-1.139l0.113-14.705
		c0.002-0.304-0.116-0.597-0.33-0.814S11.859,14.932,11.555,14.93z M10.295,29.542c-2.198-0.367-2.365-1.719-2.374-2.004l0.063-8.25
		c0.014-0.301,0.201-1.653,2.405-1.988L10.295,29.542z"></path>
    </g>
  </g>
  <g id="pause" data-iconmelon="Dripicons:aa02daadf53a065dad1b35b99db2d7fa">
    <g>
      <path d="M8.862,0C7.544,0,6.475,1.069,6.475,2.388v27.224C6.475,30.931,7.544,32,8.862,32c1.319,0,2.389-1.069,2.389-2.388V2.388
		C11.251,1.069,10.182,0,8.862,0z"></path>
      <path d="M23.138,0c-1.319,0-2.389,1.069-2.389,2.388v27.224c0,1.319,1.069,2.388,2.389,2.388c1.318,0,2.388-1.069,2.388-2.388
		V2.388C25.525,1.069,24.456,0,23.138,0z"></path>
    </g>
  </g>
  <g id="record" data-iconmelon="Dripicons:e89c07b5b4b164218779ae4c8daf80ca">
    <path d="M16,32C7.178,32,0,24.822,0,16S7.178,0,16,0s15.999,7.178,15.999,16S24.822,32,16,32z M16,3.653
	C9.191,3.653,3.652,9.192,3.652,16S9.191,28.347,16,28.347c6.808,0,12.347-5.539,12.347-12.347S22.808,3.653,16,3.653z"></path>
  </g>
  <g id="previous" data-iconmelon="Dripicons:de99023d2c9eea38d5e1fcefb9a9c7a1">
    <g>
      <path d="M30.363,0.168c-0.581-0.281-1.271-0.206-1.779,0.194L10.471,14.679c-0.404,0.319-0.64,0.806-0.64,1.321
		s0.235,1.002,0.64,1.322l18.114,14.315C28.888,31.877,29.257,32,29.629,32c0.25,0,0.5-0.055,0.734-0.168
		c0.581-0.281,0.95-0.87,0.95-1.516V1.684C31.313,1.039,30.944,0.45,30.363,0.168z M27.945,26.838L14.232,16L27.945,5.162V26.838z"></path>
      <path d="M2.582,0.495c-1.047,0-1.895,0.848-1.895,1.895v27.563c0,1.046,0.848,1.895,1.895,1.895c1.046,0,1.895-0.849,1.895-1.895
		V2.39C4.477,1.343,3.628,0.495,2.582,0.495z"></path>
    </g>
  </g>
  <g id="next" data-iconmelon="Dripicons:355d8f698087f698d53f73055cd29346">
    <g>
      <path d="M21.68,14.678L3.566,0.363c-0.507-0.4-1.197-0.476-1.779-0.195c-0.581,0.282-0.95,0.871-0.95,1.516v28.631
		c0,0.646,0.369,1.234,0.95,1.516C2.021,31.944,2.271,32,2.521,32c0.372,0,0.741-0.124,1.045-0.363L21.68,17.321
		c0.404-0.319,0.64-0.806,0.64-1.322C22.32,15.484,22.084,14.998,21.68,14.678z M4.206,26.837V5.162L17.919,16L4.206,26.837z"></path>
      <path d="M29.268,0.495c-1.046,0-1.895,0.848-1.895,1.895v27.563c0,1.047,0.848,1.895,1.895,1.895c1.047,0,1.895-0.848,1.895-1.895
		V2.389C31.163,1.343,30.315,0.495,29.268,0.495z"></path>
    </g>
  </g>
  <g id="stop" data-iconmelon="Dripicons:081dd0c051d40610f5a46b2c5f1600a0">
    <path d="M30.139,32H1.861c-1.027,0-1.86-0.833-1.86-1.86V1.86C0.001,0.833,0.834,0,1.861,0h28.277c1.027,0,1.86,0.833,1.86,1.86
	V30.14C31.999,31.167,31.166,32,30.139,32z M3.722,28.279h24.556V3.721H3.722V28.279z"></path>
  </g>
  <g id="play" data-iconmelon="Dripicons:fa9c0a757d3f1ca1351ca516f50e974a">
    <path d="M6.937,32c-0.248,0-0.498-0.055-0.729-0.167c-0.578-0.28-0.945-0.866-0.945-1.508V1.675c0-0.642,0.367-1.228,0.945-1.508
	s1.265-0.205,1.769,0.193l18.125,14.325c0.402,0.318,0.637,0.802,0.637,1.314s-0.234,0.997-0.637,1.314L7.976,31.639
	C7.674,31.877,7.307,32,6.937,32z M8.612,5.135v21.73L22.36,16L8.612,5.135z"></path>
  </g>
</svg>