<?xml version="1.0" encoding="utf-8"?>
<!-- Generator: Adobe Illustrator 16.0.3, SVG Export Plug-In . SVG Version: 6.00 Build 0)  -->
<!DOCTYPE svg PUBLIC "-//W3C//DTD SVG 1.1//EN" "http://www.w3.org/Graphics/SVG/1.1/DTD/svg11.dtd">
<svg version="1.1" id="Layer_1" xmlns="http://www.w3.org/2000/svg" xmlns:xlink="http://www.w3.org/1999/xlink" x="0px" y="0px"
	 width="1000px" height="1000px" viewBox="0 0 1000 1000" enable-background="new 0 0 1000 1000" xml:space="preserve">
<polygon fill="#FFFFFF" points="-402.84,102.882 -723.419,211.616 -723.419,573.441 -620.31,534.072 -620.31,211.616 
	-402.84,170.374 -402.84,597.817 -723.419,573.441 -402.84,689.118 -237.86,632.876 -237.86,159.125 "/>
<g>
	<polygon fill="#FFFFFF" points="-888.122,-379.731 -1184,-342.911 -1184,-124.533 -888.122,-124.533 	"/>
	<polygon fill="#FFFFFF" points="-1184,-96.289 -1184,115.889 -888.122,157.971 -888.122,-96.289 	"/>
	<polygon fill="#FFFFFF" points="-859.878,161.985 -564,204.066 -564,-96.289 -859.878,-96.289 	"/>
	<polygon fill="#FFFFFF" points="-564,-124.533 -564,-420.066 -859.878,-383.246 -859.878,-124.533 	"/>
</g>
<path fill-rule="evenodd" clip-rule="evenodd" fill="#333333" d="M301.729,709.205c0.875-11.488,5.433-21.857,10.192-32.064
	c16.604-35.604,39.937-66.828,64.053-97.517c36.645-46.631,79.568-87.416,120.847-129.732c5.996-6.146,12.241-12.059,18.087-18.342
	c2.556-2.747,3.98-2.866,6.782-0.119c28.433,27.88,56.511,56.099,83.502,85.391c28.307,30.719,56.02,61.971,81.474,95.099
	c22.585,29.396,40.686,61.31,50.551,97.4c0.406,1.485,0.655,3.095,2.154,4.012l-0.104-0.098
	c-23.199,24.81-49.232,45.974-79.239,62.133c-37.408,20.145-77.189,32.005-119.612,34.94
	c-72.896,5.043-138.835-14.165-197.904-56.983c-15.328-11.109-29.565-23.547-41.928-37.991
	C300.547,713.212,301.278,711.234,301.729,709.205z"/>
<path fill-rule="evenodd" clip-rule="evenodd" fill="#333333" d="M301.729,709.205c0.224,2.156,0.002,4.229-1.146,6.128
	c-17.977-18.424-32.387-39.435-44.36-62.105c-28.214-53.424-39.075-110.396-32.739-170.344
	c6.971-65.949,33.573-123.287,78.864-171.713c13.146-14.057,29.413-18.604,48.553-13.308c27.277,7.547,50.435,22.334,72.436,39.373
	c13.295,10.297,25.5,21.824,37.417,33.674c2.459,2.446,2.703,3.778,0.095,6.438c-41.009,41.828-76.467,88.07-108.154,137.238
	c-28.677,44.496-47.672,92.769-54.815,145.377c-2.37,17.455-2.766,35.022,1.811,52.365
	C301.487,712.008,300.658,709.976,301.729,709.205z"/>
<path fill-rule="evenodd" clip-rule="evenodd" fill="#333333" d="M739.371,713.332c-1.179-6.909,1.469-13.435,2.201-20.142
	c3.652-33.466-0.622-65.815-13.076-96.993c-18.502-46.314-44.619-88.271-74.482-127.989c-23.741-31.578-50.176-60.835-77.887-88.94
	c-3.363-3.41-3.613-4.926,0.144-8.306c31.049-27.935,64.194-52.732,102.539-69.921c10.164-4.556,20.278-8.677,32.029-5.468
	c9.052,2.471,16.257,7.208,22.545,13.874c38.661,40.982,64.87,88.77,75.622,144.105c18.515,95.303-3.558,180.567-66.084,255.116
	c-1.252,1.494-2.455,3.028-3.668,4.555C739.267,713.234,739.371,713.332,739.371,713.332z"/>
<path fill-rule="evenodd" clip-rule="evenodd" fill="#333333" d="M361.998,261.958c113.854-71.219,247.623-46.034,316.02,3.185
	c-23.032-9.325-44.294-2.758-65.092,5.42c-33.116,13.02-62.415,32.711-90.688,53.965c-3.098,2.329-4.852,2.308-7.839,0.029
	c-25.937-19.794-52.918-37.988-82.652-51.687c-15.991-7.366-32.399-13.721-50.429-13.284
	C375.337,259.73,369.383,261.013,361.998,261.958z"/>
</svg>
